<svg width="99" height="153" viewBox="0 0 99 153" fill="none" xmlns="http://www.w3.org/2000/svg">
<path d="M26.83 152.5C26.4882 152.281 26.1821 152.158 25.9116 152.13C25.5414 152.182 25.2353 152.059 24.9933 151.76C24.6705 151.361 24.4237 151.107 24.2528 150.998L18.237 147.084C17.8953 146.865 17.5535 146.647 17.2118 146.429C16.8701 146.211 16.4785 146.033 16.0372 145.895C14.9124 145.321 13.7377 144.788 12.5132 144.294C11.3789 143.81 10.2494 143.281 9.12455 142.707C8.52179 142.37 7.87868 141.984 7.19523 141.547C6.60195 141.12 6.01341 140.648 5.42961 140.131C4.8458 139.614 4.26674 139.051 3.69241 138.444C3.21773 137.756 2.79288 137.028 2.41784 136.259L1.73426 134.956C1.29749 133.908 0.995972 132.873 0.829712 131.853C0.753622 130.842 0.722616 129.836 0.736696 128.834C0.760253 127.743 0.869241 126.706 1.06366 125.724C1.35773 124.661 1.64706 123.643 1.93165 122.67L3.2123 118.291C3.48741 117.409 3.80287 116.576 4.15868 115.793C4.51448 115.01 4.91537 114.231 5.36135 113.458C5.58907 113.026 5.85241 112.689 6.15135 112.447C6.9201 112.072 7.55359 111.682 8.05182 111.279C8.35076 111.037 8.76601 110.989 9.29755 111.136C9.73892 111.274 10.2087 111.141 10.707 110.738L11.3048 110.253C11.4045 110.173 11.6347 110.151 11.9953 110.189C12.2658 110.218 12.5364 110.246 12.8069 110.274C13.0774 110.303 13.3431 110.376 13.6042 110.495C13.7845 110.514 13.9554 110.623 14.1168 110.822C14.4395 111.221 14.8714 111.449 15.4125 111.506C15.7542 111.724 15.9108 111.968 15.8824 112.239C15.9631 112.338 15.9987 112.433 15.9892 112.523C15.9797 112.614 16.0153 112.709 16.096 112.808C16.0676 113.079 16.2337 113.233 16.5944 113.271C17.2256 113.337 17.5579 113.646 17.5912 114.196L17.4774 115.278C17.8714 115.867 18.0851 116.436 18.1184 116.986C18.2039 117.907 18.0783 118.669 17.7414 119.272L17.222 120.311C16.9041 120.733 16.6669 121.255 16.5103 121.877C16.3633 122.409 16.2163 122.94 16.0692 123.472C15.8559 124.635 15.7374 125.762 15.7138 126.853C15.7756 127.133 15.7875 127.453 15.7496 127.814C15.7212 128.085 15.7378 128.36 15.7996 128.64C15.7143 129.451 16.0086 130.121 16.6826 130.647C16.9341 130.856 17.1809 131.11 17.423 131.409C17.7647 131.627 18.1065 131.845 18.4482 132.064C19.1411 132.41 19.8293 132.801 20.5128 133.238C21.2057 133.584 21.8986 133.93 22.5915 134.277C22.8526 134.395 23.1136 134.514 23.3746 134.633C23.6357 134.751 23.9015 134.825 24.172 134.853C25.6764 135.285 27.2023 135.947 28.7495 136.838L29.9242 137.372C30.7974 137.737 31.6777 137.602 32.5651 136.966C33.0633 136.563 33.5568 136.204 34.0456 135.891C34.5438 135.487 34.997 135.079 35.405 134.666C37.825 132.459 39.6019 129.865 40.7356 126.885C41.2195 125.751 41.6132 124.607 41.9168 123.453C42.3105 122.31 42.6591 121.161 42.9626 120.008C43.2662 118.855 43.4748 117.737 43.5885 116.655C43.8019 115.492 43.9702 114.325 44.0934 113.153L44.7047 107.337C44.6524 106.966 44.6405 106.646 44.669 106.376C44.7069 106.015 44.6997 105.65 44.6474 105.279C44.6664 105.099 44.6403 104.914 44.569 104.724C44.588 104.544 44.6022 104.409 44.6117 104.318C44.7444 103.056 44.7869 101.784 44.7392 100.503C44.7817 99.2309 44.8195 98.0042 44.8525 96.8225C44.8904 96.4618 44.8833 96.0964 44.831 95.7262C44.8689 95.3655 44.8617 95.0001 44.8095 94.63C44.8284 94.4496 44.8023 94.2645 44.7311 94.0747C44.7595 93.8042 44.7832 93.5788 44.8022 93.3985C44.8447 92.1266 44.797 90.8453 44.6592 89.5545C44.6115 88.2731 44.5591 87.0369 44.502 85.8457C44.4733 84.384 44.3497 82.958 44.1312 81.5675C44.0028 80.1865 43.8341 78.7557 43.6251 77.2751C43.4683 76.1646 43.4017 75.0636 43.4252 73.9721C43.4583 72.7904 43.4462 71.604 43.3891 70.4128C43.3967 70.3401 43.4073 70.271 43.4208 70.2055C43.4574 70.0273 43.5156 69.8757 43.5954 69.7508C43.8231 69.3189 44.1007 68.8466 44.4281 68.334C44.6857 67.873 44.9004 67.5674 45.072 67.4174C45.1248 67.3713 45.1734 67.3398 45.2181 67.3231C45.4174 67.1617 45.517 67.081 45.517 67.081C45.8254 66.7488 46.2003 66.6514 46.6417 66.789C47.1827 66.8458 47.5623 66.7034 47.7806 66.3617C47.7806 66.3617 47.8399 66.2312 47.9585 65.9701C48.1673 65.7186 48.4378 65.747 48.77 66.0554C48.9409 66.1646 49.1568 66.2784 49.4179 66.397C49.6789 66.5156 49.8996 66.5844 50.0799 66.6033C50.2603 66.6223 50.4501 66.5511 50.6494 66.3897C51.2094 66.2662 52.4505 67.0348 54.3728 68.6955L54.6148 68.9945C54.6054 69.0846 54.7787 69.6043 55.1347 70.5534C55.5905 71.4218 55.8397 72.0861 55.8825 72.5464C56.1747 74.0353 56.4401 75.5597 56.6788 77.1196C57.0222 79.3633 57.3102 81.6805 57.5429 84.0711L57.7355 86.1426C57.7357 87.8748 57.8309 89.5714 58.021 91.2323C58.2111 92.8933 58.3063 94.5899 58.3065 96.3221C58.3637 97.5132 58.3757 98.6997 58.3427 99.8813C58.3191 100.973 58.3407 102.069 58.4073 103.17C58.4929 104.091 58.5286 105.052 58.5145 106.053C58.5004 107.054 58.4864 108.056 58.4723 109.057C58.5863 109.707 58.6006 110.438 58.5153 111.25C58.43 112.061 58.3946 112.832 58.4089 113.563C58.371 113.924 58.3236 114.375 58.2668 114.916C58.2194 115.367 58.1269 115.813 57.9893 116.254C57.8328 116.876 57.7214 117.502 57.6551 118.133C57.5982 118.674 57.5366 119.261 57.4703 119.892C57.3565 120.974 57.1526 122.046 56.8586 123.109C56.6642 124.092 56.4246 125.07 56.1401 126.042C55.8081 127.466 55.3859 128.88 54.8736 130.285C54.3708 131.6 53.8181 132.955 53.2156 134.35L51.9987 136.821C50.6703 139.051 49.171 141.173 47.5008 143.185C46.6657 144.192 45.7594 145.008 44.7819 145.635C43.9942 146.19 43.1567 146.786 42.2693 147.422C41.4816 147.977 40.6939 148.532 39.9062 149.088C38.9287 149.714 37.8658 150.286 36.7174 150.804C35.6592 151.331 34.5606 151.808 33.4217 152.235C33.3221 152.316 33.1821 152.347 33.0017 152.328C32.9116 152.318 32.7716 152.349 32.5817 152.42C32.0407 152.364 31.495 152.352 30.9445 152.385C30.3845 152.509 29.8245 152.632 29.2646 152.756C28.8944 152.808 28.4839 152.81 28.033 152.763C27.6724 152.725 27.2713 152.637 26.83 152.5Z" fill="#F2F2F2"/>
<path d="M43.5186 26.5511C43.4903 26.4286 43.4587 26.3061 43.4237 26.1836C43.333 26.0022 43.2877 25.6849 43.2877 25.2316V18.4316V17.2076C43.2877 16.7542 43.197 16.3462 43.0157 15.9836C42.7437 15.0769 42.789 14.0342 43.1517 12.8556C43.333 12.4022 43.5143 12.0849 43.6957 11.9036L44.2397 11.0876C44.421 10.8156 44.557 10.5436 44.6477 10.2716C44.829 9.99957 44.965 9.86357 45.0557 9.86357C45.4183 9.7729 45.6903 9.6369 45.8717 9.45557C46.1437 9.27423 46.3703 9.0929 46.5517 8.91157L47.3677 8.50357C47.549 8.4129 47.821 8.36757 48.1837 8.36757L49.5437 8.63957C50.0877 8.63957 50.5863 8.6849 51.0397 8.77558C51.5837 8.77558 51.9917 9.00224 52.2637 9.45557L53.6237 11.3596C54.077 11.9942 54.4397 12.6742 54.7117 13.3996C54.9837 14.0342 55.3463 14.5782 55.7997 15.0316L55.8981 15.1627C55.8885 15.0488 55.8798 14.9502 55.872 14.8719C55.8214 14.3657 55.9742 15.0597 55.872 14.5998C55.7698 14.14 55.419 12.9689 55.192 12.1518C54.965 11.3348 54.7966 10.3724 54.648 9.70384C54.4994 9.03532 54.5951 8.92538 54.512 8.34385C54.4289 7.76232 54.2854 7.21073 54.104 6.71185C53.9226 6.21297 53.7414 5.39814 53.696 4.94385C53.6506 4.48956 53.6507 4.39984 53.56 4.12784C53.4693 3.85584 53.3354 3.76996 53.152 3.31185C52.9686 2.85373 52.608 2.26918 52.064 2.08785C51.52 1.90651 50.9774 1.77108 50.432 1.54384C49.8866 1.31661 49.7974 1.18119 48.664 0.999844C47.5306 0.8185 45.355 1.31695 44.176 2.22384C42.997 3.13074 42.4869 3.69805 41.864 4.94385C41.2411 6.18964 40.6815 7.3798 40.232 8.61585C39.7825 9.85191 39.371 10.6098 38.872 11.6078C38.373 12.6058 37.8294 13.6478 37.24 14.5998C36.6506 15.5519 36.0614 16.4585 35.472 17.3198C34.8826 18.1812 34.1861 19.2152 33.704 19.9039C33.2219 20.5925 33.5345 20.4166 32.888 21.1278C32.2414 21.8391 31.12 23.1678 30.304 24.2558C29.488 25.3438 28.4453 26.6585 27.856 27.3838C27.2667 28.1092 27.04 28.3812 26.632 28.8798C26.224 29.3785 25.9072 29.8312 25.544 30.2398C25.1808 30.6485 24.9103 30.4684 24.728 30.1038C24.5457 29.7393 24.3657 29.6058 24.184 29.2878C24.0023 28.9699 24.0668 29.0534 23.64 28.1999C23.2132 27.3463 22.2635 25.8648 21.6 24.9359C20.9365 24.0069 20.6496 23.7595 20.24 23.1679C19.8304 22.5762 19.3342 21.7639 19.016 21.2638C18.6978 20.7638 18.5636 20.54 18.336 20.1758C18.1084 19.8117 18.1095 19.7227 17.656 19.2238C17.2025 18.725 16.432 17.7732 15.888 17.0478C15.344 16.3225 14.7559 15.4626 14.256 14.8719C13.7561 14.2811 13.4401 13.92 13.168 13.2398C12.8959 12.5597 12.5333 11.8345 12.08 11.1998C11.6267 10.5652 11.0829 9.84027 10.72 9.29585C10.3571 8.75143 9.99709 8.66142 9.496 8.61585L8 8.47984C7.49891 8.43428 7.04997 8.25338 6.64 8.20785C6.23003 8.16231 6.074 8.21885 5.824 8.34385C5.574 8.46885 5.22463 8.53522 5.008 8.75185C4.79137 8.96848 4.55575 9.11363 4.328 9.29585C4.10025 9.47806 3.73975 9.65835 3.512 9.70384C3.28533 9.74912 3.2416 9.83659 3.10594 10.108L3.104 10.1118C2.9668 10.3863 2.87733 10.6558 2.696 10.9278C2.51466 11.1998 2.33421 11.5161 2.152 11.7438C1.96978 11.9716 1.88019 11.8793 1.608 12.6958C1.33581 13.5124 1.24458 15.1872 1.472 15.8238C1.69942 16.4605 1.744 16.6398 1.744 17.0478V18.2718V25.0718C1.744 26.6263 1.74354 25.6146 1.88 26.0238C2.01646 26.4331 2.152 27.3385 2.152 27.9278V29.6958V30.5118C2.152 30.7838 2.15197 30.8744 2.288 31.3279C2.42403 31.7813 2.56 32.7332 2.56 33.5038V35.6799V38.1279C2.56 38.8985 2.70101 39.8504 2.832 40.4399C2.96299 41.0293 2.74158 41.0302 2.832 41.3919C2.92242 41.7535 2.9223 42.2048 2.968 42.6159C3.01369 43.0269 3.05799 43.4727 3.104 43.8399C3.15 44.207 3.24 44.4745 3.24 44.7919V45.6079V47.9198C3.24 48.6905 3.17915 48.5211 3.376 50.0959C3.57285 51.6706 3.376 54.8583 3.376 56.3519V57.9839C3.376 58.5279 3.42132 59.1171 3.512 59.6159C3.60268 60.1146 3.648 60.6132 3.648 61.1119V62.4719C3.648 63.3093 3.76078 64.5848 3.648 65.5998C3.53521 66.6149 3.512 67.3225 3.512 68.1838C3.512 69.0452 3.46668 69.589 3.376 70.6318C3.28531 71.6747 3.24 73.2158 3.24 74.5758C3.24 74.5758 5.56019 76.0758 6.60668 76.6137C7.65317 77.1517 7.93882 77.2837 8.5 77.5003C9.06118 77.7168 9.04354 77.7251 9.43478 77.826C9.82602 77.9269 10.5 78.0003 10.5 78.0003C10.5 78.0003 11.5813 77.6199 12.2725 77.2341C12.9637 76.8483 13.2381 76.6542 14 76.0003C14.7619 75.3464 16.024 73.7598 16.024 73.7598C15.8427 72.6718 15.6163 71.2676 15.48 70.6318C15.3437 69.9961 15.2535 69.9537 15.208 69.4078C15.1625 68.862 15.1174 67.7764 15.072 67.0958C15.0266 66.4153 14.9363 66.326 14.8 66.0079C14.664 65.6905 14.664 65.4649 14.664 65.1938V65.1918C14.664 64.9198 14.6184 64.6955 14.664 64.3759L14.6642 64.3747C14.7097 64.0554 14.7546 63.741 14.664 63.4239C14.5733 63.1063 14.8459 63.5161 14.392 62.3359C13.9381 61.1556 13.6213 57.5305 13.984 56.0799C14.3467 54.6292 14.3016 54.7674 14.256 54.3119C14.2104 53.8563 14.0745 53.4522 14.12 52.9519C14.1655 52.4515 14.2561 52.0003 14.12 51.4559C13.9839 50.9114 13.9454 50.2118 14.12 49.6879C14.2902 49.1772 14.2212 48.8328 14.1274 48.3647L14.12 48.3279C14.0226 47.8408 13.8936 47.4689 13.848 46.9678C13.8027 46.4692 13.8924 45.9754 13.9827 45.4792L13.984 45.4719C14.0747 44.9731 14.0295 44.3857 13.984 43.8399C13.9385 43.294 13.984 42.7065 13.984 42.2079C13.984 41.7092 13.9392 41.5293 13.848 41.2559C13.7568 40.9824 13.621 40.6694 13.712 39.8959C13.8029 39.1223 13.984 37.9012 13.984 36.9039C13.984 35.9065 13.8483 34.5476 13.712 33.9119C13.5757 33.2761 13.576 33.3679 13.576 33.0959V32.2799C13.576 32.1063 13.6401 32.072 13.712 32.1438C13.7839 32.2157 13.6966 32.2799 14.12 32.2799C14.5434 32.2799 14.5468 33.2894 14.936 33.7759C15.3252 34.2623 15.616 34.7278 15.888 35.2719C16.16 35.8159 16.4574 36.5805 16.704 36.7679C16.9506 36.9552 16.976 37.1759 17.52 38.2639L18.608 40.4399C18.7893 40.8025 18.88 41.1199 18.88 41.2559C18.88 41.3919 18.9251 41.5726 19.016 41.7999C19.1069 42.0271 19.2415 42.1575 19.288 42.3439C19.3345 42.5302 19.288 42.7519 19.288 43.0239C19.288 43.2959 19.3771 43.2878 19.424 43.7039C19.4709 44.1199 19.4689 44.9719 19.696 45.6079C19.9231 46.2438 20.24 46.7412 20.648 47.2399C21.056 47.7385 21.4634 48.2818 21.872 48.7359C22.2806 49.1899 22.8952 49.3135 23.504 49.6879C24.1128 50.0622 24.9805 50.3571 25.544 50.2319C26.1075 50.1066 25.8849 50.164 26.36 50.2319C26.8351 50.2997 27.5826 50.3231 28.128 50.0959C28.6734 49.8686 29.2974 49.4189 29.624 49.2799C29.9506 49.1408 29.5787 49.5972 30.168 49.0079C30.7573 48.4185 32.0263 46.8328 32.48 45.7439C32.9337 44.6549 33.1599 43.8854 33.568 43.0239C33.9761 42.1623 34.5652 40.8481 34.792 40.3039C35.0188 39.7596 34.9731 39.9871 35.064 39.7598C35.1549 39.5326 35.1088 39.8066 35.336 39.0799C35.5632 38.3531 36.2425 36.6774 36.968 35.5439C37.6935 34.4103 38.4634 33.006 39.008 32.1438C39.5526 31.2817 39.8239 30.9653 40.232 30.3758C40.6401 29.7864 41.184 29.0158 41.456 28.6078C41.728 28.1999 41.864 28.0638 42.136 27.7918C42.408 27.5198 42.6628 27.2056 42.816 26.9758C42.9692 26.7461 43.0207 26.5678 43.224 26.5678C43.3646 26.5678 43.4398 26.5011 43.5186 26.5511Z" fill="#F2F2F2"/>
<path d="M55.1197 32.4396L55.2557 32.3036C55.3412 32.3891 55.4671 32.4343 55.6332 32.4391C55.6559 32.2502 55.6902 32.0552 55.736 31.8718C55.8267 31.5092 55.872 31.1465 55.872 30.7838C55.872 30.4212 55.9623 30.198 56.008 29.6958C56.0537 29.1937 56.008 28.5172 56.008 27.9278C56.008 27.3385 56.0533 26.5681 56.144 26.0238C56.2347 25.4796 56.28 25.1172 56.28 24.6638V23.3038C56.28 22.4664 56.1739 21.2369 56.28 20.1758C56.3855 19.1211 56.2815 18.4626 56.1464 17.6073L56.144 17.5918C56.0288 16.8626 55.9502 15.7846 55.8981 15.1627L55.7997 15.0316C55.3463 14.5782 54.9837 14.0342 54.7117 13.3996C54.4397 12.6742 54.077 11.9942 53.6237 11.3596L52.2637 9.45557C51.9917 9.00224 51.5837 8.77558 51.0397 8.77558C50.5863 8.6849 50.0877 8.63957 49.5437 8.63957L48.1837 8.36757C47.821 8.36757 47.549 8.4129 47.3677 8.50357L46.5517 8.91157C46.3703 9.0929 46.1437 9.27423 45.8717 9.45557C45.6903 9.6369 45.4183 9.7729 45.0557 9.86357C44.965 9.86357 44.829 9.99957 44.6477 10.2716C44.557 10.5436 44.421 10.8156 44.2397 11.0876L43.6957 11.9036C43.5143 12.0849 43.333 12.4022 43.1517 12.8556C42.789 14.0342 42.7437 15.0769 43.0157 15.9836C43.197 16.3462 43.2877 16.7542 43.2877 17.2076V18.4316V25.2316C43.2877 25.6849 43.333 26.0022 43.4237 26.1836C43.4587 26.3061 43.4903 26.4286 43.5186 26.5511C43.5536 26.5734 43.5894 26.6189 43.632 26.7038C43.7536 26.9465 43.77 27.102 43.6763 27.5789C43.6892 27.7484 43.6957 27.918 43.6957 28.0876V29.8556V30.6716C43.6957 30.9436 43.741 31.2156 43.8317 31.4876C44.013 32.1222 44.1037 32.8476 44.1037 33.6636V35.8396V38.2876C44.1037 39.0129 44.1943 39.7836 44.3757 40.5996V41.5516C44.4663 41.9142 44.5117 42.3222 44.5117 42.7756C44.6023 43.1382 44.6477 43.5462 44.6477 43.9996C44.7383 44.2716 44.7837 44.5889 44.7837 44.9516V45.7676V48.0796C44.7837 48.8049 44.829 49.5302 44.9197 50.2556V56.5116V58.1436C44.9197 58.6876 44.965 59.2316 45.0557 59.7756C45.1463 60.2289 45.1917 60.7276 45.1917 61.2716V62.6316V65.7596C45.1324 66.2928 45.0925 66.8454 45.072 67.4174C45.1248 67.3713 45.1734 67.3398 45.2181 67.3231L45.517 67.081C45.8254 66.7488 46.2003 66.6514 46.6417 66.789C47.1827 66.8458 47.5623 66.7034 47.7806 66.3617L47.9585 65.9701C48.1673 65.7186 48.4378 65.747 48.77 66.0554C48.9409 66.1646 49.1568 66.2784 49.4179 66.397C49.6789 66.5156 49.8996 66.5844 50.0799 66.6033C50.2603 66.6223 50.4501 66.5511 50.6494 66.3897C51.2094 66.2662 52.4505 67.0348 54.3728 68.6955L54.6148 68.9945C54.6054 69.0846 54.7787 69.6043 55.1347 70.5534C55.5905 71.4218 55.8397 72.0861 55.8825 72.5464C56.1747 74.0353 56.4401 75.5597 56.6788 77.1196C56.6817 77.0215 56.688 76.9182 56.688 76.7519C56.688 76.2079 56.5655 75.5682 56.416 75.1199C56.2665 74.6715 56.4844 74.715 56.416 74.1678C56.3476 73.6207 56.28 72.7172 56.28 71.9918C56.28 71.2665 56.1935 70.6011 56.008 69.9519C55.8225 69.3026 56.008 68.8917 56.008 68.1838V66.0079C56.008 65.2372 55.9536 64.3484 55.872 63.6959C55.7985 63.1078 55.9237 62.8946 55.8895 62.3807C55.1147 60.4209 54.9941 58.3739 55.5277 56.2396C55.5354 56.2087 55.543 56.178 55.5504 56.1476C55.5287 55.9523 55.4999 55.7512 55.464 55.5359C55.3733 54.9917 55.2374 54.2681 55.192 53.6319C55.1465 52.9956 55.192 53.6651 55.192 51.7279V43.4319V42.4799C55.192 42.1625 55.2372 41.8911 55.328 41.3919C55.337 41.3426 55.345 41.2912 55.3523 41.2381C55.2879 40.9083 55.2557 40.5142 55.2557 40.0556C55.437 39.0582 55.5277 38.0609 55.5277 37.0636C55.5277 36.0662 55.437 35.0689 55.2557 34.0716C55.165 33.7996 55.1197 33.5276 55.1197 33.2556V32.4396Z" fill="#F2F2F2"/>
<path d="M85.3117 73.2396C85.3117 74.4182 85.357 75.5969 85.4477 76.7756L88 79L91.5 79.5H94L96 79L97.4157 78.5436L97.9597 78C97.869 77.456 98.2317 77.4556 98.2317 76.9116C98.2317 76.3676 98.141 75.8236 97.9597 75.2796V74.3276C97.869 73.6022 97.8237 72.8769 97.8237 72.1516C97.8237 71.4262 97.733 70.7462 97.5517 70.1116V68.3436V66.1676C97.5517 65.3516 97.5064 64.5809 97.4157 63.8556V62.3596C97.325 61.6342 97.2797 60.9996 97.2797 60.4556C97.2797 59.8209 97.2343 59.1862 97.1437 58.5516V57.1916C97.1437 56.6476 97.0984 56.1489 97.0077 55.6956L96.7357 53.7916V51.8876V43.5916V42.6396C96.7357 42.2769 96.781 41.9142 96.8717 41.5516C96.9623 40.9169 97.0077 40.3276 97.0077 39.7836C97.0984 39.2396 97.1437 38.6502 97.1437 38.0156V34.2076V33.1196C97.1437 32.7569 97.189 32.3942 97.2797 32.0316C97.3703 31.6689 97.4157 31.3062 97.4157 30.9436C97.4157 30.5809 97.461 30.2182 97.5517 29.8556V28.0876C97.5517 27.4529 97.597 26.8182 97.6877 26.1836C97.7784 25.7302 97.8237 25.2769 97.8237 24.8236V23.4636V20.3356C97.9144 19.4289 97.869 18.5676 97.6877 17.7516L97.4157 15.0316V14.7596C97.2344 13.9436 97.0077 13.1276 96.7357 12.3116L96.1917 9.86357L96.0557 8.50357C95.965 7.8689 95.829 7.32491 95.6477 6.87158C95.4663 6.32757 95.3304 5.73823 95.2397 5.10357C95.2397 4.83157 95.1944 4.55957 95.1037 4.28757C95.013 4.01557 94.877 3.74357 94.6957 3.47157C94.5143 2.83691 94.1517 2.4289 93.6077 2.24757L91.9757 1.70357C91.4317 1.43157 90.8423 1.25024 90.2077 1.15957C88.5757 0.887571 87.0797 1.29557 85.7197 2.38357C84.7223 3.1089 83.9517 4.01557 83.4077 5.10357L81.7757 8.77558C81.413 9.77291 80.9597 10.7702 80.4157 11.7676C79.9623 12.7649 79.4183 13.7622 78.7837 14.7596C78.2397 15.6662 77.6503 16.5729 77.0157 17.4796C76.4717 18.2956 75.8823 19.1569 75.2477 20.0636L74.4317 21.2876C73.525 22.2849 72.6637 23.3276 71.8477 24.4156C71.0317 25.5036 70.2157 26.5462 69.3997 27.5436C69.037 27.9969 68.629 28.4956 68.1757 29.0396L67.0877 30.3996C66.725 30.7622 66.453 30.7169 66.2717 30.2636L65.7277 29.4476L65.1837 28.3596L63.1437 25.0956C62.6903 24.4609 62.237 23.8716 61.7837 23.3276C61.421 22.6929 61.013 22.0582 60.5597 21.4236C60.3783 21.0609 60.1517 20.6982 59.8797 20.3356C59.6983 19.9729 59.4717 19.6556 59.1997 19.3836C58.565 18.6582 57.9757 17.9329 57.4317 17.2076L55.8981 15.1627C55.9502 15.7846 56.0288 16.8626 56.144 17.5918L56.1464 17.6073C56.2815 18.4626 56.3855 19.1211 56.28 20.1758C56.1739 21.2369 56.28 22.4664 56.28 23.3038V24.6638C56.28 25.1172 56.2347 25.4796 56.144 26.0238C56.0533 26.5681 56.008 27.3385 56.008 27.9278C56.008 28.5172 56.0537 29.1937 56.008 29.6958C55.9623 30.198 55.872 30.4212 55.872 30.7838C55.872 31.1465 55.8267 31.5092 55.736 31.8718C55.6902 32.0552 55.6559 32.2502 55.6332 32.4391C55.6432 32.4394 55.6534 32.4396 55.6637 32.4396L56.4797 33.9356C56.8423 34.3889 57.1597 34.8876 57.4317 35.4316C57.7037 35.9756 57.9757 36.4742 58.2477 36.9276C58.2477 36.8369 58.5197 37.3356 59.0637 38.4236L60.1517 40.5996C60.333 40.9622 60.4237 41.2342 60.4237 41.4156C60.4237 41.5062 60.469 41.6876 60.5597 41.9596L60.8317 42.5036V43.1836C60.8317 43.4556 60.877 43.6822 60.9677 43.8636C60.9677 44.4982 61.0583 45.1329 61.2397 45.7676C61.5117 46.4022 61.829 46.9462 62.1917 47.3996C62.645 47.9436 63.053 48.4422 63.4157 48.8956C63.869 49.3489 64.413 49.6662 65.0477 49.8476C65.5917 50.3916 66.2717 50.5729 67.0877 50.3916H67.9037C68.5383 50.4822 69.1277 50.4369 69.6717 50.2556C70.2157 49.9836 70.7143 49.7116 71.1677 49.4396C71.349 49.4396 71.5303 49.3489 71.7117 49.1676C72.709 48.1702 73.4797 47.0822 74.0237 45.9036C74.3863 44.9062 74.749 43.9996 75.1117 43.1836C75.565 42.2769 75.973 41.3702 76.3357 40.4636L76.6077 39.9196C76.6983 39.6476 76.789 39.4209 76.8797 39.2396C77.2423 37.9702 77.7863 36.7916 78.5117 35.7036C79.237 34.5249 79.917 33.3916 80.5517 32.3036C81.005 31.6689 81.413 31.0796 81.7757 30.5356C82.229 29.9009 82.637 29.3116 82.9997 28.7676C83.181 28.4956 83.4077 28.2236 83.6797 27.9516C83.9517 27.6796 84.1783 27.4076 84.3597 27.1356L84.7677 26.7276C84.949 26.7276 85.085 26.7729 85.1757 26.8636C85.357 27.3169 85.357 27.6796 85.1757 27.9516C85.085 28.9489 84.9943 29.9916 84.9037 31.0796V34.0716C84.9037 34.2529 84.8583 34.4796 84.7677 34.7516V35.5676C84.7677 36.0209 84.7223 36.4742 84.6317 36.9276V38.2876C84.541 41.9142 84.4957 45.5862 84.4957 49.3036V60.4556V61.1356C84.4957 61.4076 84.541 61.6342 84.6317 61.8156C84.813 62.6316 84.9037 63.4929 84.9037 64.3996V66.8476V69.5676L85.1757 72.0156C85.2663 72.2876 85.3117 72.6956 85.3117 73.2396Z" fill="#F2F2F2"/>
<path d="M45.1917 65.7596V62.6316V61.2716C45.1917 60.7276 45.1463 60.2289 45.0557 59.7756C44.965 59.2316 44.9197 58.6876 44.9197 58.1436V56.5116V50.2556C44.829 49.5302 44.7837 48.8049 44.7837 48.0796V45.7676V44.9516C44.7837 44.5889 44.7383 44.2716 44.6477 43.9996C44.6477 43.5462 44.6023 43.1382 44.5117 42.7756C44.5117 42.3222 44.4663 41.9142 44.3757 41.5516V40.5996C44.1943 39.7836 44.1037 39.0129 44.1037 38.2876V35.8396V33.6636C44.1037 32.8476 44.013 32.1222 43.8317 31.4876C43.741 31.2156 43.6957 30.9436 43.6957 30.6716V29.8556V28.0876C43.6957 27.918 43.6892 27.7484 43.6763 27.5789C43.6635 27.6436 43.6488 27.7143 43.632 27.7918C43.4916 28.441 43.4054 29.8763 43.36 30.9198C43.3146 31.9634 43.36 33.3225 43.36 33.9119C43.36 34.5012 43.2699 34.3163 43.224 34.5919C43.1781 34.8674 43.224 35.0452 43.224 35.4079C43.224 35.7705 43.1336 36.3123 43.088 36.7679C43.0814 36.8337 43.0777 36.8663 43.076 36.88C43.0832 36.8342 43.1204 36.6684 43.088 38.1279C43.0427 40.1679 42.952 45.4265 42.952 49.1439V60.2959V60.9759C42.952 61.2479 42.9512 61.1549 43.088 61.6559C43.2248 62.1568 43.36 63.3785 43.36 64.2399V66.6878C43.36 67.5492 43.3146 68.5452 43.36 69.4078C43.3735 69.664 43.3949 69.9357 43.4208 70.2055C43.4574 70.0273 43.5156 69.8757 43.5954 69.7508C43.8231 69.3189 44.1007 68.8466 44.4281 68.334C44.6857 67.873 44.9004 67.5674 45.072 67.4174C45.0925 66.8454 45.1324 66.2928 45.1917 65.7596Z" fill="#F2F2F2"/>
</svg>
