<svg width="915" height="691" viewBox="0 0 915 691" fill="none" xmlns="http://www.w3.org/2000/svg">
<path d="M48.6257 236.182H132.888V555.033C132.888 578.505 128.272 597.493 119.042 611.999C109.811 626.504 96.5588 637.119 79.2844 643.844C62.1419 650.569 41.6368 653.932 17.7692 653.932C14.8681 653.932 12.099 653.866 9.46165 653.734C6.69247 653.734 3.79143 653.668 0.758522 653.536V587.669C3.00024 587.801 4.97822 587.867 6.69247 587.867C8.27486 587.999 9.98911 588.065 11.8352 588.065C25.4174 588.065 34.9117 585.164 40.3182 579.362C45.8565 573.692 48.6257 565.12 48.6257 553.648V236.182ZM90.5589 197.018C78.1636 197.018 67.4825 192.864 58.5156 184.556C49.5488 176.117 45.0653 166.029 45.0653 154.293C45.0653 142.689 49.5488 132.733 58.5156 124.426C67.4825 115.986 78.1636 111.767 90.5589 111.767C103.218 111.767 113.965 115.986 122.8 124.426C131.767 132.733 136.25 142.689 136.25 154.293C136.25 166.029 131.767 176.117 122.8 184.556C113.965 192.864 103.218 197.018 90.5589 197.018Z" fill="#1A1A1A"/>
<path d="M48.6257 540V236.182H128.932V289.785H132.492C138.822 271.983 149.371 257.94 164.14 247.654C178.909 237.369 196.579 232.226 217.15 232.226C237.985 232.226 255.721 237.435 270.358 247.852C284.995 258.137 294.753 272.115 299.632 289.785H302.797C308.994 272.379 320.203 258.467 336.422 248.05C352.774 237.5 372.092 232.226 394.377 232.226C422.728 232.226 445.739 241.259 463.409 259.324C481.211 277.258 490.112 302.708 490.112 335.674V540H406.047V352.289C406.047 335.411 401.564 322.752 392.597 314.312C383.63 305.873 372.422 301.653 358.971 301.653C343.675 301.653 331.741 306.532 323.17 316.29C314.598 325.916 310.313 338.641 310.313 354.465V540H228.622V350.509C228.622 335.608 224.337 323.741 215.765 314.906C207.326 306.071 196.183 301.653 182.337 301.653C172.975 301.653 164.536 304.027 157.019 308.774C149.635 313.389 143.767 319.916 139.415 328.356C135.064 336.663 132.888 346.421 132.888 357.63V540H48.6257Z" fill="#1A1A1A"/>
<path d="M881.374 540V236.182H801.068V289.785H797.508C791.178 271.983 780.629 257.94 765.86 247.654C751.091 237.369 733.421 232.226 712.85 232.226C692.015 232.226 674.279 237.435 659.642 247.852C645.005 258.137 635.247 272.115 630.368 289.785H627.203C621.006 272.379 609.797 258.467 593.578 248.05C577.226 237.5 557.908 232.226 535.623 232.226C507.272 232.226 484.261 241.259 466.591 259.324C448.789 277.258 439.888 302.708 439.888 335.674V540H523.953V352.289C523.953 335.411 528.436 322.752 537.403 314.312C546.37 305.873 557.578 301.653 571.029 301.653C586.325 301.653 598.259 306.532 606.83 316.29C615.402 325.916 619.687 338.641 619.687 354.465V540H701.378V350.509C701.378 335.608 705.663 323.741 714.235 314.906C722.674 306.071 733.817 301.653 747.663 301.653C757.025 301.653 765.464 304.027 772.981 308.774C780.365 313.389 786.233 319.916 790.585 328.356C794.936 336.663 797.112 346.421 797.112 357.63V540H881.374Z" fill="#1A1A1A"/>
</svg>
