<svg width="98" height="152" viewBox="0 0 98 152" fill="none" xmlns="http://www.w3.org/2000/svg">
<path d="M26.0966 151.537C25.7548 151.318 25.4487 151.195 25.1782 151.167C24.808 151.219 24.5019 151.096 24.2599 150.797C23.9371 150.398 23.6903 150.144 23.5194 150.035L17.5036 146.121C17.1619 145.903 16.8202 145.684 16.4784 145.466C16.1367 145.248 15.7451 145.07 15.3038 144.932C14.179 144.358 13.0043 143.825 11.7798 143.331C10.6455 142.847 9.51597 142.318 8.39115 141.744C7.78839 141.408 7.14528 141.021 6.46183 140.584C5.86855 140.157 5.28001 139.685 4.69621 139.168C4.11241 138.651 3.53334 138.089 2.95901 137.481C2.48433 136.793 2.05948 136.065 1.68445 135.296L1.00086 133.993C0.564089 132.945 0.262574 131.91 0.0963135 130.89C0.0202232 129.879 -0.010782 128.873 0.00329779 127.872C0.0268547 126.78 0.135843 125.743 0.330263 124.761C0.62433 123.698 0.913658 122.68 1.19825 121.707L2.4789 117.329C2.75401 116.446 3.06947 115.613 3.42528 114.83C3.78108 114.047 4.18197 113.268 4.62795 112.495C4.85567 112.063 5.11901 111.726 5.41795 111.484C6.1867 111.109 6.82019 110.72 7.31842 110.316C7.61737 110.074 8.03261 110.026 8.56415 110.173C9.00552 110.311 9.47533 110.178 9.97356 109.775L10.5714 109.29C10.6711 109.21 10.9013 109.188 11.2619 109.226C11.5324 109.255 11.803 109.283 12.0735 109.312C12.344 109.34 12.6097 109.414 12.8708 109.532C13.0511 109.551 13.222 109.66 13.3834 109.86C13.7061 110.258 14.138 110.486 14.6791 110.543C15.0208 110.761 15.1774 111.005 15.149 111.276C15.2297 111.375 15.2653 111.47 15.2558 111.561C15.2463 111.651 15.282 111.746 15.3626 111.845C15.3342 112.116 15.5003 112.27 15.861 112.308C16.4922 112.374 16.8245 112.683 16.8578 113.233L16.744 114.315C17.138 114.904 17.3517 115.473 17.385 116.024C17.4705 116.944 17.3449 117.706 17.008 118.309L16.4886 119.348C16.1707 119.77 15.9335 120.293 15.7769 120.914C15.6299 121.446 15.4829 121.977 15.3358 122.509C15.1225 123.672 15.004 124.799 14.9804 125.89C15.0422 126.17 15.0541 126.491 15.0162 126.851C14.9878 127.122 15.0044 127.397 15.0662 127.677C14.9809 128.489 15.2752 129.158 15.9492 129.684C16.2007 129.893 16.4475 130.147 16.6896 130.446C17.0313 130.664 17.3731 130.882 17.7148 131.101C18.4077 131.447 19.0959 131.838 19.7794 132.275C20.4723 132.621 21.1652 132.968 21.8582 133.314C22.1192 133.432 22.3802 133.551 22.6413 133.67C22.9023 133.788 23.1681 133.862 23.4386 133.89C24.943 134.322 26.4689 134.984 28.0161 135.876L29.1908 136.409C30.064 136.775 30.9443 136.639 31.8317 136.003C32.3299 135.6 32.8234 135.241 33.3122 134.928C33.8104 134.525 34.2636 134.116 34.6716 133.703C37.0916 131.496 38.8685 128.902 40.0022 125.922C40.4861 124.788 40.8798 123.644 41.1834 122.491C41.5771 121.347 41.9257 120.198 42.2292 119.045C42.5328 117.892 42.7414 116.774 42.8551 115.692C43.0685 114.529 43.2368 113.362 43.36 112.19L43.9713 106.374C43.919 106.004 43.9071 105.683 43.9356 105.413C43.9735 105.052 43.9663 104.687 43.914 104.316C43.933 104.136 43.9069 103.951 43.8356 103.761C43.8546 103.581 43.8688 103.446 43.8783 103.355C44.011 102.093 44.0535 100.821 44.0058 99.5399C44.0483 98.268 44.0861 97.0413 44.1191 95.8596C44.157 95.4989 44.1499 95.1335 44.0976 94.7633C44.1355 94.4026 44.1283 94.0372 44.0761 93.6671C44.095 93.4867 44.0689 93.3017 43.9977 93.1118C44.0261 92.8413 44.0498 92.6159 44.0688 92.4356C44.1113 91.1637 44.0636 89.8824 43.9258 88.5916C43.8781 87.3102 43.8257 86.074 43.7686 84.8828C43.7399 83.4211 43.6163 81.9951 43.3978 80.6046C43.2694 79.2236 43.1007 77.7928 42.8917 76.3122C42.7349 75.2017 42.6683 74.1007 42.6918 73.0092C42.7249 71.8275 42.7128 70.6411 42.6557 69.4499C42.6633 69.3772 42.6739 69.3081 42.6874 69.2426C42.724 69.0644 42.7822 68.9128 42.862 68.7879C43.0897 68.356 43.3673 67.8837 43.6947 67.3712C43.9523 66.9101 44.167 66.6045 44.3386 66.4545C44.3914 66.4084 44.44 66.3769 44.4847 66.3602C44.684 66.1988 44.7836 66.1181 44.7836 66.1181C45.092 65.7859 45.4669 65.6885 45.9083 65.8261C46.4493 65.8829 46.8289 65.7405 47.0472 65.3988C47.0472 65.3988 47.1065 65.2683 47.2251 65.0072C47.4339 64.7557 47.7044 64.7841 48.0366 65.0925C48.2075 65.2017 48.4234 65.3155 48.6845 65.4341C48.9455 65.5527 49.1662 65.6215 49.3465 65.6405C49.5269 65.6594 49.7167 65.5882 49.916 65.4268C50.476 65.3033 51.7171 66.0719 53.6394 67.7326L53.8814 68.0316C53.872 68.1218 54.0453 68.6414 54.4013 69.5905C54.8571 70.4589 55.1063 71.1232 55.1491 71.5835C55.4413 73.0724 55.7067 74.5968 55.9454 76.1568C56.2888 78.4004 56.5768 80.7176 56.8095 83.1082L57.0021 85.1797C57.0023 86.9119 57.0975 88.6085 57.2876 90.2694C57.4777 91.9304 57.5729 93.627 57.5732 95.3592C57.6303 96.5503 57.6423 97.7368 57.6093 98.9184C57.5857 100.01 57.6073 101.106 57.6739 102.207C57.7595 103.128 57.7952 104.089 57.7811 105.09C57.767 106.092 57.753 107.093 57.7389 108.094C57.8529 108.744 57.8672 109.475 57.7819 110.287C57.6966 111.098 57.6612 111.869 57.6755 112.6C57.6376 112.961 57.5902 113.412 57.5334 113.953C57.486 114.404 57.3935 114.85 57.256 115.291C57.0994 115.913 56.988 116.539 56.9217 117.171C56.8648 117.712 56.8032 118.298 56.7369 118.929C56.6231 120.011 56.4192 121.083 56.1252 122.147C55.9307 123.129 55.6913 124.107 55.4067 125.08C55.0747 126.503 54.6525 127.918 54.1402 129.322C53.6374 130.637 53.0847 131.992 52.4822 133.387L51.2654 135.858C49.9369 138.088 48.4376 140.21 46.7674 142.222C45.9323 143.229 45.026 144.045 44.0485 144.672C43.2608 145.227 42.4233 145.823 41.5359 146.459C40.7482 147.014 39.9605 147.57 39.1728 148.125C38.1953 148.751 37.1324 149.323 35.984 149.841C34.9258 150.368 33.8272 150.845 32.6883 151.272C32.5887 151.353 32.4487 151.384 32.2683 151.365C32.1782 151.355 32.0382 151.386 31.8484 151.458C31.3073 151.401 30.7616 151.389 30.2111 151.422C29.6511 151.546 29.0911 151.669 28.5312 151.793C28.161 151.845 27.7505 151.847 27.2996 151.8C26.939 151.762 26.5379 151.674 26.0966 151.537Z" fill="#F2F2F2"/>
<path d="M54.3863 31.4767L54.5223 31.3407C54.6078 31.4262 54.7337 31.4714 54.8998 31.4762C54.9225 31.2873 54.9568 31.0923 55.0026 30.909C55.0933 30.5463 55.1386 30.1836 55.1386 29.821C55.1386 29.4583 55.2289 29.2351 55.2746 28.733C55.3203 28.2308 55.2746 27.5543 55.2746 26.965C55.2746 26.3756 55.3199 25.6052 55.4106 25.061C55.5013 24.5167 55.5466 24.1543 55.5466 23.701V22.341C55.5466 21.5035 55.4405 20.274 55.5466 19.213C55.6521 18.1582 55.5481 17.4997 55.413 16.6444L55.4106 16.629C55.2954 15.8997 55.2168 14.8217 55.1647 14.1998L55.0663 14.0687C54.6129 13.6153 54.2503 13.0713 53.9783 12.4367C53.7063 11.7113 53.3436 11.0313 52.8903 10.3967L51.5303 8.49268C51.2583 8.03935 50.8503 7.81268 50.3063 7.81268C49.8529 7.72201 49.3543 7.67667 48.8103 7.67667L47.4503 7.40468C47.0876 7.40468 46.8156 7.45001 46.6343 7.54068L45.8183 7.94868C45.6369 8.13001 45.4103 8.31134 45.1383 8.49268C44.9569 8.67401 44.6849 8.81001 44.3223 8.90068C44.2316 8.90068 44.0956 9.03668 43.9143 9.30868C43.8236 9.58068 43.6876 9.85268 43.5063 10.1247L42.9623 10.9407C42.7809 11.122 42.5996 11.4393 42.4183 11.8927C42.0556 13.0713 42.0103 14.114 42.2823 15.0207C42.4636 15.3833 42.5543 15.7913 42.5543 16.2447V17.4687V24.2687C42.5543 24.722 42.5996 25.0393 42.6903 25.2207C42.7253 25.3432 42.7569 25.4657 42.7852 25.5882C42.8202 25.6105 42.856 25.656 42.8986 25.741C43.0202 25.9836 43.0366 26.1392 42.9429 26.616C42.9558 26.7855 42.9623 26.9551 42.9623 27.1247V28.8927V29.7087C42.9623 29.9807 43.0076 30.2527 43.0983 30.5247C43.2796 31.1593 43.3703 31.8847 43.3703 32.7007V34.8767V37.3247C43.3703 38.05 43.4609 38.8207 43.6423 39.6367V40.5887C43.7329 40.9514 43.7783 41.3594 43.7783 41.8127C43.8689 42.1754 43.9143 42.5833 43.9143 43.0367C44.0049 43.3087 44.0503 43.626 44.0503 43.9887V44.8047V47.1167C44.0503 47.842 44.0956 48.5674 44.1863 49.2927V55.5487V57.1807C44.1863 57.7247 44.2316 58.2687 44.3223 58.8127C44.4129 59.266 44.4583 59.7647 44.4583 60.3087V61.6687V64.7967C44.399 65.3299 44.3591 65.8825 44.3386 66.4545C44.3914 66.4084 44.44 66.3769 44.4847 66.3602L44.7836 66.1181C45.092 65.7859 45.4669 65.6885 45.9083 65.8261C46.4493 65.8829 46.8289 65.7405 47.0472 65.3988L47.2251 65.0072C47.4339 64.7557 47.7044 64.7841 48.0366 65.0925C48.2075 65.2017 48.4234 65.3155 48.6845 65.4341C48.9455 65.5527 49.1662 65.6215 49.3465 65.6405C49.5269 65.6594 49.7167 65.5882 49.916 65.4268C50.476 65.3033 51.7171 66.0719 53.6394 67.7326L53.8814 68.0316C53.872 68.1218 54.0453 68.6414 54.4013 69.5905C54.8571 70.4589 55.1063 71.1232 55.1491 71.5835C55.4413 73.0724 55.7067 74.5968 55.9454 76.1568C55.9483 76.0586 55.9546 75.9553 55.9546 75.789C55.9546 75.245 55.8321 74.6053 55.6826 74.157C55.5332 73.7086 55.751 73.7521 55.6826 73.2049C55.6142 72.6578 55.5466 71.7543 55.5466 71.029C55.5466 70.3036 55.4601 69.6382 55.2746 68.989C55.0891 68.3397 55.2746 67.9288 55.2746 67.221V65.045C55.2746 64.2743 55.2202 63.3855 55.1386 62.733C55.0651 62.145 55.1903 61.9318 55.1561 61.4179C54.3813 59.458 54.2607 57.411 54.7943 55.2767C54.802 55.2458 54.8096 55.2151 54.817 55.1847C54.7953 54.9894 54.7665 54.7883 54.7306 54.573C54.6399 54.0288 54.5041 53.3052 54.4586 52.669C54.4132 52.0327 54.4586 52.7022 54.4586 50.765V42.469V41.517C54.4586 41.1996 54.5038 40.9282 54.5946 40.429C54.6036 40.3797 54.6116 40.3284 54.6189 40.2752C54.5545 39.9454 54.5223 39.5513 54.5223 39.0927C54.7036 38.0954 54.7943 37.098 54.7943 36.1007C54.7943 35.1034 54.7036 34.106 54.5223 33.1087C54.4316 32.8367 54.3863 32.5647 54.3863 32.2927V31.4767Z" fill="#F2F2F2"/>
<path d="M44.4583 64.7967V61.6687V60.3087C44.4583 59.7647 44.4129 59.266 44.3223 58.8127C44.2316 58.2687 44.1863 57.7247 44.1863 57.1807V55.5487V49.2927C44.0956 48.5674 44.0503 47.842 44.0503 47.1167V44.8047V43.9887C44.0503 43.626 44.0049 43.3087 43.9143 43.0367C43.9143 42.5833 43.8689 42.1754 43.7783 41.8127C43.7783 41.3594 43.7329 40.9514 43.6423 40.5887V39.6367C43.4609 38.8207 43.3703 38.05 43.3703 37.3247V34.8767V32.7007C43.3703 31.8847 43.2796 31.1593 43.0983 30.5247C43.0076 30.2527 42.9623 29.9807 42.9623 29.7087V28.8927V27.1247C42.9623 26.9551 42.9558 26.7855 42.9429 26.616C42.9301 26.6807 42.9154 26.7514 42.8986 26.829C42.7582 27.4781 42.672 28.9134 42.6266 29.957C42.5812 31.0005 42.6266 32.3596 42.6266 32.949C42.6266 33.5383 42.5365 33.3534 42.4906 33.629C42.4447 33.9045 42.4906 34.0823 42.4906 34.445C42.4906 34.8076 42.4002 35.3494 42.3546 35.805C42.348 35.8708 42.3443 35.9034 42.3426 35.9172C42.3498 35.8713 42.387 35.7055 42.3546 37.165C42.3093 39.205 42.2186 44.4636 42.2186 48.181V59.333V60.013C42.2186 60.285 42.2178 60.192 42.3546 60.693C42.4914 61.194 42.6266 62.4156 42.6266 63.277V65.725C42.6266 66.5863 42.5812 67.5823 42.6266 68.445C42.6401 68.7011 42.6615 68.9728 42.6874 69.2426C42.724 69.0644 42.7822 68.9128 42.862 68.7879C43.0897 68.356 43.3673 67.8837 43.6947 67.3712C43.9523 66.9101 44.167 66.6045 44.3386 66.4545C44.3591 65.8825 44.399 65.3299 44.4583 64.7967Z" fill="#F2F2F2"/>
<path d="M83.7623 48.3407V59.4927C84.9304 60.6714 87.9666 62.7567 90.7666 61.6687C91.6197 61.7619 93.97 61.4572 96.5463 59.4927C96.5463 58.858 96.501 58.2234 96.4103 57.5887V56.2287C96.4103 55.6847 96.365 55.186 96.2743 54.7327L96.0023 52.8287V50.9247V42.6287V41.6767C96.0023 41.314 96.0476 40.9514 96.1383 40.5887C96.2289 39.954 96.2743 39.3647 96.2743 38.8207C96.365 38.2767 96.4103 37.6874 96.4103 37.0527V33.2447V32.1567C96.4103 31.794 96.4556 31.4314 96.5463 31.0687C96.6369 30.706 96.6823 30.3433 96.6823 29.9807C96.6823 29.618 96.7276 29.2553 96.8183 28.8927V27.1247C96.8183 26.49 96.8636 25.8553 96.9543 25.2207C97.045 24.7673 97.0903 24.314 97.0903 23.8607V22.5007V19.3727C97.181 18.466 97.1356 17.6047 96.9543 16.7887L96.6823 14.0687V13.7967C96.501 12.9807 96.2743 12.1647 96.0023 11.3487L95.4583 8.90068L95.3223 7.54068C95.2316 6.90601 95.0956 6.36202 94.9143 5.90868C94.733 5.36468 94.597 4.77534 94.5063 4.14068C94.5063 3.86868 94.461 3.59668 94.3703 3.32468C94.2796 3.05268 94.1436 2.78068 93.9623 2.50868C93.7809 1.87401 93.4183 1.46601 92.8743 1.28468L91.2423 0.740677C90.6983 0.46868 90.1089 0.287345 89.4743 0.196674C87.8423 -0.0753221 86.3463 0.332677 84.9863 1.42067C83.9889 2.14601 83.2183 3.05268 82.6743 4.14068L81.0423 7.81268C80.6796 8.81001 80.2263 9.80734 79.6823 10.8047C79.2289 11.802 78.6849 12.7993 78.0503 13.7967C77.5063 14.7033 76.9169 15.61 76.2823 16.5167C75.7383 17.3327 75.1489 18.194 74.5143 19.1007L73.6983 20.3247C72.7916 21.322 71.9303 22.3647 71.1143 23.4527C70.2983 24.5407 69.4823 25.5833 68.6663 26.5807C68.3036 27.034 67.8956 27.5327 67.4423 28.0767L66.3543 29.4367C65.9916 29.7993 65.7196 29.754 65.5383 29.3007L64.9943 28.4847L64.4503 27.3967L62.4103 24.1327C61.9569 23.498 61.5036 22.9087 61.0503 22.3647C60.6876 21.73 60.2796 21.0953 59.8263 20.4607C59.6449 20.098 59.4183 19.7353 59.1463 19.3727C58.965 19.01 58.7383 18.6927 58.4663 18.4207C57.8316 17.6953 57.2423 16.97 56.6983 16.2447L55.1647 14.1998C55.2168 14.8217 55.2954 15.8997 55.4106 16.629L55.413 16.6444C55.5481 17.4997 55.6521 18.1582 55.5466 19.213C55.4405 20.274 55.5466 21.5035 55.5466 22.341V23.701C55.5466 24.1543 55.5013 24.5167 55.4106 25.061C55.3199 25.6052 55.2746 26.3756 55.2746 26.965C55.2746 27.5543 55.3203 28.2308 55.2746 28.733C55.2289 29.2351 55.1386 29.4583 55.1386 29.821C55.1386 30.1836 55.0933 30.5463 55.0026 30.909C54.9568 31.0923 54.9225 31.2873 54.8998 31.4762C54.9098 31.4765 54.92 31.4767 54.9303 31.4767L55.7463 32.9727C56.1089 33.426 56.4263 33.9247 56.6983 34.4687C56.9703 35.0127 57.2423 35.5114 57.5143 35.9647C57.5143 35.874 57.7863 36.3727 58.3303 37.4607L59.4183 39.6367C59.5996 39.9994 59.6903 40.2714 59.6903 40.4527C59.6903 40.5434 59.7356 40.7247 59.8263 40.9967L60.0983 41.5407V42.2207C60.0983 42.4927 60.1436 42.7194 60.2343 42.9007C60.2343 43.5354 60.3249 44.17 60.5063 44.8047C60.7783 45.4394 61.0956 45.9834 61.4583 46.4367C61.9116 46.9807 62.3196 47.4794 62.6823 47.9327C63.1356 48.386 63.6796 48.7034 64.3143 48.8847C64.8583 49.4287 65.5383 49.61 66.3543 49.4287H67.1703C67.8049 49.5194 68.3943 49.474 68.9383 49.2927C69.4823 49.0207 69.9809 48.7487 70.4343 48.4767C70.6156 48.4767 70.7969 48.386 70.9783 48.2047C71.9756 47.2074 72.7463 46.1194 73.2903 44.9407C73.653 43.9434 74.0156 43.0367 74.3783 42.2207C74.8316 41.314 75.2396 40.4074 75.6023 39.5007L75.8743 38.9567C75.965 38.6847 76.0556 38.458 76.1463 38.2767C76.5089 37.0074 77.053 35.8287 77.7783 34.7407C78.5036 33.562 79.1836 32.4287 79.8183 31.3407C80.2716 30.706 80.6796 30.1167 81.0423 29.5727C81.4956 28.938 81.9036 28.3487 82.2663 27.8047C82.4476 27.5327 82.6743 27.2607 82.9463 26.9887C83.2183 26.7167 83.4449 26.4447 83.6263 26.1727L84.0343 25.7647C84.2156 25.7647 84.3516 25.81 84.4423 25.9007C84.6236 26.354 84.6236 26.7167 84.4423 26.9887C84.3516 27.986 84.2609 29.0287 84.1703 30.1167V33.1087C84.1703 33.29 84.1249 33.5167 84.0343 33.7887V34.6047C84.0343 35.058 83.989 35.5114 83.8983 35.9647V37.3247C83.8076 40.9514 83.7623 44.6234 83.7623 48.3407Z" fill="#F2F2F2"/>
<path d="M42.6903 25.2207C42.5996 25.0393 42.5543 24.722 42.5543 24.2687V17.4687V16.2447C42.5543 15.7913 42.4636 15.3833 42.2823 15.0207C42.0103 14.114 42.0556 13.0713 42.4183 11.8927C42.5996 11.4393 42.7809 11.122 42.9623 10.9407L43.5063 10.1247C43.6876 9.85268 43.8236 9.58068 43.9143 9.30868C44.0956 9.03668 44.2316 8.90068 44.3223 8.90068C44.6849 8.81001 44.9569 8.67401 45.1383 8.49268C45.4103 8.31134 45.6369 8.13001 45.8183 7.94868L46.6343 7.54068C46.8156 7.45001 47.0876 7.40468 47.4503 7.40468L48.8103 7.67667C49.3543 7.67667 49.8529 7.72201 50.3063 7.81268C50.8503 7.81268 51.2583 8.03935 51.5303 8.49268L52.8903 10.3967C53.3436 11.0313 53.7063 11.7113 53.9783 12.4367C54.2503 13.0713 54.6129 13.6153 55.0663 14.0687L55.1647 14.1998C55.1551 14.0859 55.1464 13.9873 55.1386 13.909C55.088 13.4028 55.2408 14.0968 55.1386 13.637C55.0364 13.1771 54.6856 12.006 54.4586 11.189C54.2316 10.3719 54.0632 9.40948 53.9146 8.74095C53.766 8.07243 53.8617 7.96249 53.7786 7.38095C53.6955 6.79942 53.552 6.24784 53.3706 5.74896C53.1892 5.25008 53.008 4.43525 52.9626 3.98096C52.9172 3.52667 52.9173 3.43695 52.8266 3.16495C52.7359 2.89295 52.602 2.80707 52.4186 2.34895C52.2352 1.89083 51.8746 1.30629 51.3306 1.12495C50.7866 0.943621 50.244 0.808187 49.6986 0.580952C49.1532 0.353716 49.064 0.218296 47.9306 0.036953C46.7972 -0.14439 44.6216 0.354055 43.4426 1.26095C42.2636 2.16785 41.7535 2.73516 41.1306 3.98096C40.5077 5.22675 39.9481 6.4169 39.4986 7.65296C39.0491 8.88901 38.6376 9.64696 38.1386 10.645C37.6396 11.6429 37.096 12.6849 36.5066 13.637C35.9172 14.589 35.328 15.4956 34.7386 16.357C34.1492 17.2183 33.4527 18.2523 32.9706 18.941C32.4885 19.6296 32.8012 19.4537 32.1546 20.165C31.508 20.8762 30.3866 22.205 29.5706 23.293C28.7546 24.381 27.7119 25.6956 27.1226 26.421C26.5333 27.1463 26.3066 27.4183 25.8986 27.917C25.4906 28.4156 25.1738 28.8683 24.8106 29.277C24.4474 29.6856 24.1769 29.5055 23.9946 29.141C23.8123 28.7764 23.6323 28.6429 23.4506 28.325C23.2689 28.007 23.3334 28.0905 22.9066 27.237C22.4798 26.3834 21.5301 24.9019 20.8666 23.973C20.2031 23.044 19.9162 22.7966 19.5066 22.205C19.097 21.6133 18.6008 20.801 18.2826 20.301C17.9644 19.8009 17.8302 19.5771 17.6026 19.213C17.375 18.8488 17.3761 18.7598 16.9226 18.261C16.4691 17.7621 15.6986 16.8103 15.1546 16.085C14.6106 15.3596 14.0225 14.4997 13.5226 13.909C13.0227 13.3182 12.7067 12.9571 12.4346 12.277C12.1625 11.5968 11.7999 10.8716 11.3466 10.237C10.8933 9.60229 10.3495 8.87738 9.9866 8.33296C9.62366 7.78854 9.26369 7.69853 8.7626 7.65296L7.2666 7.51695C6.76551 7.47139 6.31657 7.29049 5.9066 7.24496C5.49663 7.19942 5.3406 7.25596 5.0906 7.38095C4.8406 7.50595 4.49123 7.57233 4.2746 7.78896C4.05797 8.00558 3.82235 8.15074 3.5946 8.33296C3.36685 8.51517 3.00635 8.69546 2.7786 8.74095C2.55193 8.78623 2.50821 8.8737 2.37255 9.14507L2.3706 9.14896C2.23341 9.42338 2.14393 9.69295 1.9626 9.96495C1.78127 10.2369 1.60082 10.5532 1.4186 10.781C1.23638 11.0087 1.14679 10.9164 0.874599 11.733C0.602407 12.5495 0.511179 14.2243 0.738599 14.861C0.966018 15.4976 1.0106 15.677 1.0106 16.085V17.309V24.109C1.0106 25.6634 1.01014 24.6517 1.1466 25.061C1.28306 25.4702 1.4186 26.3756 1.4186 26.965V28.733V29.549C1.4186 29.821 1.41857 29.9115 1.5546 30.365C1.69063 30.8184 1.8266 31.7703 1.8266 32.541V34.717V37.165C1.8266 37.9356 1.96761 38.8875 2.0986 39.477C2.22959 40.0664 2.00818 40.0673 2.0986 40.429C2.18902 40.7906 2.1889 41.2419 2.2346 41.653C2.2803 42.064 2.32459 42.5098 2.3706 42.877C2.41661 43.2441 2.5066 43.5116 2.5066 43.829V44.645V46.957C2.5066 47.7276 2.44575 47.5582 2.6426 49.133C2.83945 50.7078 2.6426 53.8954 2.6426 55.389V57.021C2.6426 57.565 2.68792 58.1542 2.7786 58.653C2.81981 58.8797 2.85166 59.1063 2.87414 59.333C3.96148 60.4557 6.64921 62.5684 8.70138 62.0371C10.7536 61.5058 12.5844 60.013 13.2434 59.333C13.0641 57.84 13.0201 56.0391 13.2506 55.117C13.6133 53.6663 13.5682 53.8045 13.5226 53.349C13.477 52.8934 13.3411 52.4893 13.3866 51.989C13.4321 51.4886 13.5227 51.0374 13.3866 50.493C13.2505 49.9485 13.212 49.2489 13.3866 48.725C13.5568 48.2143 13.4878 47.8699 13.394 47.4018L13.3866 47.365C13.2892 46.8779 13.1602 46.506 13.1146 46.005C13.0693 45.5063 13.159 45.0125 13.2493 44.5163L13.2506 44.509C13.3413 44.0102 13.2961 43.4228 13.2506 42.877C13.2051 42.3311 13.2506 41.7436 13.2506 41.245C13.2506 40.7463 13.2058 40.5664 13.1146 40.293C13.0234 40.0195 12.8877 39.7065 12.9786 38.933C13.0695 38.1595 13.2506 36.9383 13.2506 35.941C13.2506 34.9436 13.1149 33.5847 12.9786 32.949C12.8423 32.3132 12.8426 32.405 12.8426 32.133V31.317C12.8426 31.1434 12.9067 31.1091 12.9786 31.181C13.0505 31.2529 12.9632 31.317 13.3866 31.317C13.81 31.317 13.8134 32.3265 14.2026 32.813C14.5918 33.2995 14.8826 33.765 15.1546 34.309C15.4266 34.853 15.724 35.6177 15.9706 35.805C16.2172 35.9923 16.2426 36.213 16.7866 37.301L17.8746 39.477C18.0559 39.8396 18.1466 40.157 18.1466 40.293C18.1466 40.429 18.1917 40.6097 18.2826 40.837C18.3735 41.0642 18.5081 41.1947 18.5546 41.381C18.6011 41.5673 18.5546 41.789 18.5546 42.061C18.5546 42.333 18.6437 42.3249 18.6906 42.741C18.7375 43.157 18.7355 44.009 18.9626 44.645C19.1897 45.2809 19.5066 45.7783 19.9146 46.277C20.3226 46.7757 20.73 47.3189 21.1386 47.773C21.5472 48.227 22.1618 48.3506 22.7706 48.725C23.3794 49.0993 24.2471 49.3942 24.8106 49.269C25.3741 49.1437 25.1515 49.2011 25.6266 49.269C26.1017 49.3368 26.8492 49.3602 27.3946 49.133C27.94 48.9057 28.564 48.456 28.8906 48.317C29.2172 48.1779 28.8453 48.6343 29.4346 48.045C30.0239 47.4556 31.2929 45.8699 31.7466 44.781C32.2003 43.692 32.4265 42.9225 32.8346 42.061C33.2427 41.1994 33.8318 39.8852 34.0586 39.341C34.2854 38.7967 34.2397 39.0242 34.3306 38.797C34.4215 38.5697 34.3754 38.8437 34.6026 38.117C34.8298 37.3902 35.5091 35.7145 36.2346 34.581C36.9601 33.4474 37.73 32.0432 38.2746 31.181C38.8192 30.3188 39.0906 30.0024 39.4986 29.413C39.9067 28.8235 40.4506 28.053 40.7226 27.645C40.9946 27.237 41.1306 27.101 41.4026 26.829C41.6746 26.557 41.9294 26.2427 42.0826 26.013C42.2358 25.7832 42.2873 25.605 42.4906 25.605C42.6312 25.605 42.7064 25.5382 42.7852 25.5882C42.7569 25.4657 42.7253 25.3432 42.6903 25.2207Z" fill="#F2F2F2"/>
<path d="M83.7623 48.3407V59.4927C84.9304 60.6714 87.9666 62.7567 90.7666 61.6687C91.6197 61.7619 93.97 61.4572 96.5463 59.4927C96.5463 58.858 96.501 58.2234 96.4103 57.5887V56.2287C96.4103 55.6847 96.365 55.186 96.2743 54.7327L96.0023 52.8287V50.9247V42.6287V41.6767C96.0023 41.314 96.0476 40.9514 96.1383 40.5887C96.2289 39.954 96.2743 39.3647 96.2743 38.8207C96.365 38.2767 96.4103 37.6874 96.4103 37.0527V33.2447V32.1567C96.4103 31.794 96.4556 31.4314 96.5463 31.0687C96.6369 30.706 96.6823 30.3433 96.6823 29.9807C96.6823 29.618 96.7276 29.2553 96.8183 28.8927V27.1247C96.8183 26.49 96.8636 25.8553 96.9543 25.2207C97.045 24.7673 97.0903 24.314 97.0903 23.8607V22.5007V19.3727C97.181 18.466 97.1356 17.6047 96.9543 16.7887L96.6823 14.0687V13.7967C96.501 12.9807 96.2743 12.1647 96.0023 11.3487L95.4583 8.90068L95.3223 7.54068C95.2316 6.90601 95.0956 6.36202 94.9143 5.90868C94.733 5.36468 94.597 4.77534 94.5063 4.14068C94.5063 3.86868 94.461 3.59668 94.3703 3.32468C94.2796 3.05268 94.1436 2.78068 93.9623 2.50868C93.7809 1.87401 93.4183 1.46601 92.8743 1.28468L91.2423 0.740677C90.6983 0.46868 90.1089 0.287345 89.4743 0.196674C87.8423 -0.0753221 86.3463 0.332677 84.9863 1.42067C83.9889 2.14601 83.2183 3.05268 82.6743 4.14068L81.0423 7.81268C80.6796 8.81001 80.2263 9.80734 79.6823 10.8047C79.2289 11.802 78.6849 12.7993 78.0503 13.7967C77.5063 14.7033 76.9169 15.61 76.2823 16.5167C75.7383 17.3327 75.1489 18.194 74.5143 19.1007L73.6983 20.3247C72.7916 21.322 71.9303 22.3647 71.1143 23.4527C70.2983 24.5407 69.4823 25.5833 68.6663 26.5807C68.3036 27.034 67.8956 27.5327 67.4423 28.0767L66.3543 29.4367C65.9916 29.7993 65.7196 29.754 65.5383 29.3007L64.9943 28.4847L64.4503 27.3967L62.4103 24.1327C61.9569 23.498 61.5036 22.9087 61.0503 22.3647C60.6876 21.73 60.2796 21.0953 59.8263 20.4607C59.6449 20.098 59.4183 19.7353 59.1463 19.3727C58.965 19.01 58.7383 18.6927 58.4663 18.4207C57.8316 17.6953 57.2423 16.97 56.6983 16.2447L55.1647 14.1998C55.2168 14.8217 55.2954 15.8997 55.4106 16.629L55.413 16.6444C55.5481 17.4997 55.6521 18.1582 55.5466 19.213C55.4405 20.274 55.5466 21.5035 55.5466 22.341V23.701C55.5466 24.1543 55.5013 24.5167 55.4106 25.061C55.3199 25.6052 55.2746 26.3756 55.2746 26.965C55.2746 27.5543 55.3203 28.2308 55.2746 28.733C55.2289 29.2351 55.1386 29.4583 55.1386 29.821C55.1386 30.1836 55.0933 30.5463 55.0026 30.909C54.9568 31.0923 54.9225 31.2873 54.8998 31.4762C54.9098 31.4765 54.92 31.4767 54.9303 31.4767L55.7463 32.9727C56.1089 33.426 56.4263 33.9247 56.6983 34.4687C56.9703 35.0127 57.2423 35.5114 57.5143 35.9647C57.5143 35.874 57.7863 36.3727 58.3303 37.4607L59.4183 39.6367C59.5996 39.9994 59.6903 40.2714 59.6903 40.4527C59.6903 40.5434 59.7356 40.7247 59.8263 40.9967L60.0983 41.5407V42.2207C60.0983 42.4927 60.1436 42.7194 60.2343 42.9007C60.2343 43.5354 60.3249 44.17 60.5063 44.8047C60.7783 45.4394 61.0956 45.9834 61.4583 46.4367C61.9116 46.9807 62.3196 47.4794 62.6823 47.9327C63.1356 48.386 63.6796 48.7034 64.3143 48.8847C64.8583 49.4287 65.5383 49.61 66.3543 49.4287H67.1703C67.8049 49.5194 68.3943 49.474 68.9383 49.2927C69.4823 49.0207 69.9809 48.7487 70.4343 48.4767C70.6156 48.4767 70.7969 48.386 70.9783 48.2047C71.9756 47.2074 72.7463 46.1194 73.2903 44.9407C73.653 43.9434 74.0156 43.0367 74.3783 42.2207C74.8316 41.314 75.2396 40.4074 75.6023 39.5007L75.8743 38.9567C75.965 38.6847 76.0556 38.458 76.1463 38.2767C76.5089 37.0074 77.053 35.8287 77.7783 34.7407C78.5036 33.562 79.1836 32.4287 79.8183 31.3407C80.2716 30.706 80.6796 30.1167 81.0423 29.5727C81.4956 28.938 81.9036 28.3487 82.2663 27.8047C82.4476 27.5327 82.6743 27.2607 82.9463 26.9887C83.2183 26.7167 83.4449 26.4447 83.6263 26.1727L84.0343 25.7647C84.2156 25.7647 84.3516 25.81 84.4423 25.9007C84.6236 26.354 84.6236 26.7167 84.4423 26.9887C84.3516 27.986 84.2609 29.0287 84.1703 30.1167V33.1087C84.1703 33.29 84.1249 33.5167 84.0343 33.7887V34.6047C84.0343 35.058 83.989 35.5114 83.8983 35.9647V37.3247C83.8076 40.9514 83.7623 44.6234 83.7623 48.3407Z" fill="#F2F2F2"/>
</svg>
