<svg width="98" height="153" viewBox="0 0 98 153" fill="none" xmlns="http://www.w3.org/2000/svg">
<path d="M26.83 152.499C26.4882 152.28 26.1821 152.157 25.9116 152.129C25.5414 152.181 25.2353 152.058 24.9933 151.759C24.6705 151.36 24.4237 151.106 24.2528 150.997L18.237 147.083C17.8953 146.865 17.5535 146.646 17.2118 146.428C16.8701 146.21 16.4785 146.032 16.0372 145.894C14.9124 145.32 13.7377 144.787 12.5132 144.293C11.3789 143.809 10.2494 143.28 9.12455 142.706C8.52179 142.369 7.87868 141.983 7.19523 141.546C6.60195 141.119 6.01341 140.647 5.42961 140.13C4.8458 139.613 4.26674 139.05 3.69241 138.443C3.21773 137.755 2.79288 137.027 2.41784 136.258L1.73426 134.955C1.29749 133.907 0.995972 132.872 0.829712 131.852C0.753622 130.841 0.722616 129.835 0.736696 128.834C0.760253 127.742 0.869242 126.705 1.06366 125.723C1.35773 124.66 1.64706 123.642 1.93165 122.669L3.2123 118.291C3.48741 117.408 3.80287 116.575 4.15868 115.792C4.51448 115.009 4.91537 114.23 5.36135 113.457C5.58907 113.025 5.85241 112.688 6.15135 112.446C6.92009 112.071 7.55359 111.681 8.05182 111.278C8.35076 111.036 8.76601 110.988 9.29755 111.135C9.73892 111.273 10.2087 111.14 10.707 110.737L11.3048 110.252C11.4045 110.172 11.6347 110.15 11.9953 110.188C12.2658 110.217 12.5364 110.245 12.8069 110.274C13.0774 110.302 13.3431 110.375 13.6042 110.494C13.7845 110.513 13.9554 110.622 14.1168 110.821C14.4395 111.22 14.8714 111.448 15.4125 111.505C15.7542 111.723 15.9108 111.967 15.8824 112.238C15.9631 112.337 15.9987 112.432 15.9892 112.522C15.9797 112.613 16.0154 112.708 16.096 112.807C16.0676 113.078 16.2337 113.232 16.5944 113.27C17.2256 113.336 17.5579 113.645 17.5912 114.195L17.4774 115.277C17.8714 115.866 18.0851 116.435 18.1184 116.985C18.2039 117.906 18.0783 118.668 17.7414 119.271L17.222 120.31C16.9041 120.732 16.6669 121.254 16.5103 121.876C16.3633 122.408 16.2163 122.939 16.0692 123.471C15.8559 124.634 15.7374 125.761 15.7138 126.852C15.7756 127.132 15.7875 127.453 15.7496 127.813C15.7212 128.084 15.7378 128.359 15.7996 128.639C15.7143 129.45 16.0086 130.12 16.6826 130.646C16.9341 130.855 17.1809 131.109 17.423 131.408C17.7647 131.626 18.1065 131.844 18.4482 132.063C19.1411 132.409 19.8293 132.8 20.5128 133.237C21.2057 133.583 21.8986 133.929 22.5915 134.276C22.8526 134.394 23.1136 134.513 23.3746 134.632C23.6357 134.75 23.9014 134.824 24.172 134.852C25.6764 135.284 27.2023 135.946 28.7495 136.837L29.9242 137.371C30.7974 137.736 31.6777 137.601 32.5651 136.965C33.0633 136.562 33.5568 136.203 34.0456 135.89C34.5438 135.486 34.997 135.078 35.405 134.665C37.825 132.458 39.6019 129.864 40.7356 126.884C41.2195 125.75 41.6132 124.606 41.9168 123.453C42.3105 122.309 42.6591 121.16 42.9626 120.007C43.2662 118.854 43.4748 117.736 43.5885 116.654C43.8019 115.491 43.9702 114.324 44.0934 113.152L44.7047 107.336C44.6524 106.965 44.6405 106.645 44.669 106.375C44.7069 106.014 44.6997 105.649 44.6474 105.278C44.6664 105.098 44.6403 104.913 44.569 104.723C44.588 104.543 44.6022 104.408 44.6117 104.317C44.7444 103.055 44.7869 101.783 44.7392 100.502C44.7817 99.23 44.8195 98.0032 44.8525 96.8215C44.8904 96.4608 44.8833 96.0954 44.831 95.7252C44.8689 95.3646 44.8617 94.9991 44.8095 94.629C44.8284 94.4486 44.8023 94.2636 44.7311 94.0738C44.7595 93.8032 44.7832 93.5778 44.8022 93.3975C44.8447 92.1256 44.797 90.8443 44.6592 89.5535C44.6115 88.2721 44.5591 87.0359 44.502 85.8447C44.4733 84.3831 44.3497 82.957 44.1312 81.5665C44.0028 80.1855 43.8341 78.7547 43.6251 77.2741C43.4683 76.1636 43.4017 75.0626 43.4252 73.9711C43.4583 72.7894 43.4462 71.603 43.3891 70.4118C43.3967 70.3391 43.4073 70.27 43.4208 70.2045C43.4574 70.0263 43.5156 69.8747 43.5954 69.7498C43.8231 69.3179 44.1007 68.8457 44.4281 68.3331C44.6857 67.872 44.9004 67.5665 45.072 67.4164C45.1248 67.3703 45.1734 67.3388 45.2181 67.3221C45.4174 67.1607 45.517 67.08 45.517 67.08C45.8254 66.7478 46.2003 66.6504 46.6417 66.788C47.1827 66.8449 47.5623 66.7024 47.7806 66.3607C47.7806 66.3607 47.8399 66.2302 47.9585 65.9692C48.1673 65.7176 48.4378 65.746 48.77 66.0545C48.9409 66.1636 49.1568 66.2774 49.4179 66.396C49.6789 66.5146 49.8996 66.5834 50.0799 66.6024C50.2603 66.6213 50.4501 66.5501 50.6494 66.3887C51.2094 66.2652 52.4505 67.0339 54.3728 68.6946L54.6148 68.9935C54.6054 69.0837 54.7787 69.6033 55.1347 70.5524C55.5905 71.4208 55.8397 72.0851 55.8825 72.5455C56.1747 74.0343 56.4401 75.5587 56.6788 77.1187C57.0222 79.3623 57.3102 81.6795 57.5429 84.0702L57.7355 86.1416C57.7357 87.8738 57.8309 89.5704 58.021 91.2314C58.2111 92.8923 58.3063 94.5889 58.3065 96.3211C58.3637 97.5122 58.3757 98.6987 58.3427 99.8804C58.3191 100.972 58.3407 102.068 58.4073 103.169C58.4929 104.09 58.5286 105.051 58.5145 106.052C58.5004 107.053 58.4864 108.055 58.4723 109.056C58.5863 109.706 58.6006 110.437 58.5153 111.249C58.43 112.06 58.3946 112.831 58.4089 113.562C58.371 113.923 58.3236 114.374 58.2668 114.915C58.2194 115.366 58.1269 115.812 57.9893 116.253C57.8328 116.875 57.7214 117.501 57.6551 118.132C57.5982 118.673 57.5366 119.26 57.4703 119.891C57.3565 120.973 57.1526 122.045 56.8586 123.108C56.6641 124.091 56.4247 125.069 56.1401 126.041C55.8081 127.465 55.3859 128.88 54.8736 130.284C54.3708 131.599 53.8181 132.954 53.2156 134.349L51.9987 136.82C50.6703 139.05 49.171 141.172 47.5008 143.184C46.6657 144.191 45.7594 145.007 44.7819 145.634C43.9942 146.189 43.1567 146.785 42.2693 147.421C41.4816 147.976 40.6939 148.531 39.9062 149.087C38.9287 149.713 37.8658 150.285 36.7174 150.803C35.6592 151.33 34.5606 151.807 33.4217 152.234C33.3221 152.315 33.1821 152.346 33.0017 152.327C32.9116 152.317 32.7716 152.348 32.5817 152.419C32.0407 152.363 31.495 152.351 30.9445 152.384C30.3845 152.508 29.8245 152.631 29.2645 152.755C28.8944 152.807 28.4839 152.809 28.033 152.762C27.6724 152.724 27.2713 152.636 26.83 152.499Z" fill="#1A1A1A"/>
<path d="M55.1197 32.4386L55.2557 32.3026C55.3412 32.3881 55.4671 32.4333 55.6332 32.4382C55.6559 32.2492 55.6902 32.0542 55.736 31.8709C55.8267 31.5082 55.872 31.1455 55.872 30.7829C55.872 30.4202 55.9623 30.197 56.008 29.6949C56.0537 29.1927 56.008 28.5162 56.008 27.9269C56.008 27.3375 56.0533 26.5671 56.144 26.0229C56.2347 25.4787 56.28 25.1162 56.28 24.6629V23.3029C56.28 22.4654 56.1739 21.236 56.28 20.1749C56.3855 19.1201 56.2815 18.4616 56.1464 17.6063L56.144 17.5909C56.0288 16.8616 55.9502 15.7837 55.8981 15.1618L55.7997 15.0306C55.3463 14.5773 54.9837 14.0333 54.7117 13.3986C54.4397 12.6733 54.077 11.9933 53.6237 11.3586L52.2637 9.45459C51.9917 9.00126 51.5837 8.7746 51.0397 8.7746C50.5863 8.68393 50.0877 8.63859 49.5437 8.63859L48.1837 8.36659C47.821 8.36659 47.549 8.41192 47.3677 8.50259L46.5517 8.91059C46.3703 9.09193 46.1437 9.27326 45.8717 9.45459C45.6903 9.63592 45.4183 9.77193 45.0557 9.86259C44.965 9.86259 44.829 9.99859 44.6477 10.2706C44.557 10.5426 44.421 10.8146 44.2397 11.0866L43.6957 11.9026C43.5143 12.0839 43.333 12.4013 43.1517 12.8546C42.789 14.0333 42.7437 15.0759 43.0157 15.9826C43.197 16.3453 43.2877 16.7533 43.2877 17.2066V18.4306V25.2306C43.2877 25.6839 43.333 26.0013 43.4237 26.1826C43.4587 26.3051 43.4903 26.4276 43.5186 26.5502C43.5536 26.5725 43.5894 26.6179 43.632 26.7029C43.7536 26.9455 43.77 27.1011 43.6763 27.5779C43.6892 27.7475 43.6957 27.917 43.6957 28.0866V29.8546V30.6706C43.6957 30.9426 43.741 31.2146 43.8317 31.4866C44.013 32.1213 44.1037 32.8466 44.1037 33.6626V35.8386V38.2866C44.1037 39.0119 44.1943 39.7826 44.3757 40.5986V41.5506C44.4663 41.9133 44.5117 42.3213 44.5117 42.7746C44.6023 43.1373 44.6477 43.5453 44.6477 43.9986C44.7383 44.2706 44.7837 44.5879 44.7837 44.9506V45.7666V48.0786C44.7837 48.8039 44.829 49.5293 44.9197 50.2546V56.5106V58.1426C44.9197 58.6866 44.965 59.2306 45.0557 59.7746C45.1463 60.2279 45.1917 60.7266 45.1917 61.2706V62.6306V65.7586C45.1324 66.2918 45.0925 66.8444 45.072 67.4164C45.1248 67.3703 45.1734 67.3388 45.2181 67.3221L45.517 67.08C45.8254 66.7478 46.2003 66.6504 46.6417 66.788C47.1827 66.8449 47.5623 66.7024 47.7806 66.3607L47.9585 65.9692C48.1673 65.7176 48.4378 65.746 48.77 66.0545C48.9409 66.1636 49.1568 66.2774 49.4179 66.396C49.6789 66.5146 49.8996 66.5834 50.0799 66.6024C50.2603 66.6213 50.4501 66.5501 50.6494 66.3887C51.2094 66.2652 52.4505 67.0339 54.3728 68.6946L54.6148 68.9935C54.6054 69.0837 54.7787 69.6033 55.1347 70.5524C55.5905 71.4208 55.8397 72.0851 55.8825 72.5455C56.1747 74.0343 56.4401 75.5587 56.6788 77.1187C56.6817 77.0206 56.688 76.9173 56.688 76.7509C56.688 76.2069 56.5655 75.5672 56.416 75.1189C56.2665 74.6705 56.4844 74.714 56.416 74.1669C56.3476 73.6197 56.28 72.7162 56.28 71.9909C56.28 71.2655 56.1935 70.6001 56.008 69.9509C55.8225 69.3016 56.008 68.8908 56.008 68.1829V66.0069C56.008 65.2362 55.9536 64.3474 55.872 63.6949C55.7985 63.1069 55.9237 62.8937 55.8895 62.3798C55.1147 60.4199 54.9941 58.3729 55.5277 56.2386C55.5354 56.2077 55.543 56.1771 55.5504 56.1467C55.5287 55.9514 55.4999 55.7502 55.464 55.5349C55.3733 54.9907 55.2374 54.2671 55.192 53.6309C55.1466 52.9946 55.192 53.6641 55.192 51.7269V43.4309V42.4789C55.192 42.1615 55.2372 41.8902 55.328 41.3909C55.337 41.3417 55.345 41.2903 55.3523 41.2371C55.2879 40.9074 55.2557 40.5132 55.2557 40.0546C55.437 39.0573 55.5277 38.0599 55.5277 37.0626C55.5277 36.0653 55.437 35.0679 55.2557 34.0706C55.165 33.7986 55.1197 33.5266 55.1197 33.2546V32.4386Z" fill="#1A1A1A"/>
<path d="M45.1917 65.7586V62.6306V61.2706C45.1917 60.7266 45.1463 60.2279 45.0557 59.7746C44.965 59.2306 44.9197 58.6866 44.9197 58.1426V56.5106V50.2546C44.829 49.5293 44.7837 48.8039 44.7837 48.0786V45.7666V44.9506C44.7837 44.5879 44.7383 44.2706 44.6477 43.9986C44.6477 43.5453 44.6023 43.1373 44.5117 42.7746C44.5117 42.3213 44.4663 41.9133 44.3757 41.5506V40.5986C44.1943 39.7826 44.1037 39.0119 44.1037 38.2866V35.8386V33.6626C44.1037 32.8466 44.013 32.1213 43.8317 31.4866C43.741 31.2146 43.6957 30.9426 43.6957 30.6706V29.8546V28.0866C43.6957 27.917 43.6892 27.7475 43.6763 27.5779C43.6635 27.6426 43.6488 27.7133 43.632 27.7909C43.4916 28.44 43.4054 29.8753 43.36 30.9189C43.3146 31.9624 43.36 33.3215 43.36 33.9109C43.36 34.5002 43.2699 34.3153 43.224 34.5909C43.1781 34.8664 43.224 35.0442 43.224 35.4069C43.224 35.7696 43.1336 36.3113 43.088 36.7669C43.0814 36.8327 43.0777 36.8653 43.076 36.8791C43.0832 36.8332 43.1204 36.6674 43.088 38.1269C43.0427 40.1669 42.952 45.4255 42.952 49.1429V60.2949V60.9749C42.952 61.2469 42.9512 61.1539 43.088 61.6549C43.2248 62.1559 43.36 63.3775 43.36 64.2389V66.6869C43.36 67.5482 43.3146 68.5442 43.36 69.4069C43.3735 69.663 43.3949 69.9348 43.4208 70.2045C43.4574 70.0263 43.5156 69.8747 43.5954 69.7498C43.8231 69.3179 44.1007 68.8457 44.4281 68.3331C44.6857 67.872 44.9004 67.5665 45.072 67.4164C45.0925 66.8444 45.1324 66.2918 45.1917 65.7586Z" fill="#1A1A1A"/>
<path d="M84.4957 49.3026V60.4546C85.6638 61.6333 88.7 63.7186 91.5 62.6306C92.3531 62.7238 94.7034 62.4191 97.2797 60.4546C97.2797 59.8199 97.2343 59.1853 97.1437 58.5506V57.1906C97.1437 56.6466 97.0984 56.1479 97.0077 55.6946L96.7357 53.7906V51.8866V43.5906V42.6386C96.7357 42.2759 96.781 41.9133 96.8717 41.5506C96.9623 40.9159 97.0077 40.3266 97.0077 39.7826C97.0984 39.2386 97.1437 38.6493 97.1437 38.0146V34.2066V33.1186C97.1437 32.7559 97.189 32.3933 97.2797 32.0306C97.3703 31.6679 97.4157 31.3053 97.4157 30.9426C97.4157 30.5799 97.461 30.2173 97.5517 29.8546V28.0866C97.5517 27.4519 97.597 26.8173 97.6877 26.1826C97.7784 25.7293 97.8237 25.2759 97.8237 24.8226V23.4626V20.3346C97.9144 19.4279 97.869 18.5666 97.6877 17.7506L97.4157 15.0306V14.7586C97.2344 13.9426 97.0077 13.1266 96.7357 12.3106L96.1917 9.86259L96.0557 8.50259C95.965 7.86793 95.829 7.32393 95.6477 6.8706C95.4663 6.32659 95.3304 5.73726 95.2397 5.10259C95.2397 4.83059 95.1944 4.55859 95.1037 4.28659C95.013 4.01459 94.877 3.74259 94.6957 3.47059C94.5143 2.83593 94.1517 2.42793 93.6077 2.24659L91.9757 1.70259C91.4317 1.43059 90.8423 1.24926 90.2077 1.15859C88.5757 0.886592 87.0797 1.29459 85.7197 2.38259C84.7223 3.10792 83.9517 4.01459 83.4077 5.10259L81.7757 8.7746C81.413 9.77193 80.9597 10.7693 80.4157 11.7666C79.9623 12.7639 79.4183 13.7613 78.7837 14.7586C78.2397 15.6653 77.6503 16.5719 77.0157 17.4786C76.4717 18.2946 75.8823 19.1559 75.2477 20.0626L74.4317 21.2866C73.525 22.2839 72.6637 23.3266 71.8477 24.4146C71.0317 25.5026 70.2157 26.5453 69.3997 27.5426C69.037 27.9959 68.629 28.4946 68.1757 29.0386L67.0877 30.3986C66.725 30.7613 66.453 30.7159 66.2717 30.2626L65.7277 29.4466L65.1837 28.3586L63.1437 25.0946C62.6903 24.4599 62.237 23.8706 61.7837 23.3266C61.421 22.6919 61.013 22.0573 60.5597 21.4226C60.3783 21.0599 60.1517 20.6973 59.8797 20.3346C59.6984 19.9719 59.4717 19.6546 59.1997 19.3826C58.565 18.6573 57.9757 17.9319 57.4317 17.2066L55.8981 15.1618C55.9502 15.7837 56.0288 16.8616 56.144 17.5909L56.1464 17.6063C56.2815 18.4616 56.3855 19.1201 56.28 20.1749C56.1739 21.236 56.28 22.4654 56.28 23.3029V24.6629C56.28 25.1162 56.2347 25.4787 56.144 26.0229C56.0533 26.5671 56.008 27.3375 56.008 27.9269C56.008 28.5162 56.0537 29.1927 56.008 29.6949C55.9623 30.197 55.872 30.4202 55.872 30.7829C55.872 31.1455 55.8267 31.5082 55.736 31.8709C55.6902 32.0542 55.6559 32.2492 55.6332 32.4382C55.6432 32.4385 55.6534 32.4386 55.6637 32.4386L56.4797 33.9346C56.8423 34.3879 57.1597 34.8866 57.4317 35.4306C57.7037 35.9746 57.9757 36.4733 58.2477 36.9266C58.2477 36.8359 58.5197 37.3346 59.0637 38.4226L60.1517 40.5986C60.333 40.9613 60.4237 41.2333 60.4237 41.4146C60.4237 41.5053 60.469 41.6866 60.5597 41.9586L60.8317 42.5026V43.1826C60.8317 43.4546 60.877 43.6813 60.9677 43.8626C60.9677 44.4973 61.0583 45.1319 61.2397 45.7666C61.5117 46.4013 61.829 46.9453 62.1917 47.3986C62.645 47.9426 63.053 48.4413 63.4157 48.8946C63.869 49.3479 64.413 49.6653 65.0477 49.8466C65.5917 50.3906 66.2717 50.5719 67.0877 50.3906H67.9037C68.5383 50.4813 69.1277 50.4359 69.6717 50.2546C70.2157 49.9826 70.7143 49.7106 71.1677 49.4386C71.349 49.4386 71.5303 49.3479 71.7117 49.1666C72.709 48.1693 73.4797 47.0813 74.0237 45.9026C74.3863 44.9053 74.749 43.9986 75.1117 43.1826C75.565 42.2759 75.973 41.3693 76.3357 40.4626L76.6077 39.9186C76.6983 39.6466 76.789 39.4199 76.8797 39.2386C77.2423 37.9693 77.7863 36.7906 78.5117 35.7026C79.237 34.5239 79.917 33.3906 80.5517 32.3026C81.005 31.6679 81.413 31.0786 81.7757 30.5346C82.229 29.8999 82.637 29.3106 82.9997 28.7666C83.181 28.4946 83.4077 28.2226 83.6797 27.9506C83.9517 27.6786 84.1783 27.4066 84.3597 27.1346L84.7677 26.7266C84.949 26.7266 85.085 26.7719 85.1757 26.8626C85.357 27.3159 85.357 27.6786 85.1757 27.9506C85.085 28.9479 84.9943 29.9906 84.9037 31.0786V34.0706C84.9037 34.2519 84.8583 34.4786 84.7677 34.7506V35.5666C84.7677 36.0199 84.7223 36.4733 84.6317 36.9266V38.2866C84.541 41.9133 84.4957 45.5853 84.4957 49.3026Z" fill="#1A1A1A"/>
<path d="M43.4237 26.1826C43.333 26.0013 43.2877 25.6839 43.2877 25.2306V18.4306V17.2066C43.2877 16.7533 43.197 16.3453 43.0157 15.9826C42.7437 15.0759 42.789 14.0333 43.1517 12.8546C43.333 12.4013 43.5143 12.0839 43.6957 11.9026L44.2397 11.0866C44.421 10.8146 44.557 10.5426 44.6477 10.2706C44.829 9.99859 44.965 9.86259 45.0557 9.86259C45.4183 9.77193 45.6903 9.63592 45.8717 9.45459C46.1437 9.27326 46.3703 9.09193 46.5517 8.91059L47.3677 8.50259C47.549 8.41192 47.821 8.36659 48.1837 8.36659L49.5437 8.63859C50.0877 8.63859 50.5863 8.68393 51.0397 8.7746C51.5837 8.7746 51.9917 9.00126 52.2637 9.45459L53.6237 11.3586C54.077 11.9933 54.4397 12.6733 54.7117 13.3986C54.9837 14.0333 55.3463 14.5773 55.7997 15.0306L55.8981 15.1618C55.8885 15.0478 55.8798 14.9492 55.872 14.8709C55.8214 14.3647 55.9742 15.0587 55.872 14.5989C55.7698 14.139 55.419 12.968 55.192 12.1509C54.965 11.3338 54.7966 10.3714 54.648 9.70287C54.4994 9.03434 54.5951 8.9244 54.512 8.34287C54.4289 7.76134 54.2854 7.20975 54.104 6.71087C53.9226 6.21199 53.7414 5.39716 53.696 4.94287C53.6506 4.48858 53.6507 4.39886 53.56 4.12687C53.4693 3.85487 53.3354 3.76899 53.152 3.31087C52.9686 2.85275 52.608 2.2682 52.064 2.08687C51.52 1.90553 50.9774 1.7701 50.432 1.54287C49.8866 1.31563 49.7974 1.18021 48.664 0.998867C47.5306 0.817524 45.355 1.31597 44.176 2.22287C42.997 3.12976 42.4869 3.69708 41.864 4.94287C41.2411 6.18867 40.6815 7.37882 40.232 8.61487C39.7825 9.85093 39.371 10.6089 38.872 11.6069C38.373 12.6049 37.8294 13.6468 37.24 14.5989C36.6506 15.551 36.0614 16.4575 35.472 17.3189C34.8826 18.1803 34.1861 19.2142 33.704 19.9029C33.2219 20.5915 33.5345 20.4157 32.888 21.1269C32.2414 21.8381 31.12 23.1669 30.304 24.2549C29.488 25.3429 28.4453 26.6575 27.856 27.3829C27.2667 28.1082 27.04 28.3802 26.632 28.8789C26.224 29.3776 25.9072 29.8302 25.544 30.2389C25.1808 30.6475 24.9103 30.4674 24.728 30.1029C24.5457 29.7383 24.3657 29.6048 24.184 29.2869C24.0023 28.9689 24.0668 29.0524 23.64 28.1989C23.2132 27.3453 22.2635 25.8638 21.6 24.9349C20.9365 24.006 20.6496 23.7585 20.24 23.1669C19.8304 22.5753 19.3342 21.7629 19.016 21.2629C18.6978 20.7628 18.5636 20.539 18.336 20.1749C18.1084 19.8107 18.1095 19.7218 17.656 19.2229C17.2025 18.724 16.432 17.7722 15.888 17.0469C15.344 16.3215 14.7559 15.4616 14.256 14.8709C13.7561 14.2801 13.4401 13.919 13.168 13.2389C12.8959 12.5587 12.5333 11.8335 12.08 11.1989C11.6267 10.5642 11.0829 9.83929 10.72 9.29487C10.3571 8.75045 9.99709 8.66044 9.496 8.61487L8 8.47887C7.49891 8.4333 7.04997 8.25241 6.64 8.20687C6.23003 8.16134 6.074 8.21787 5.824 8.34287C5.574 8.46787 5.22463 8.53424 5.008 8.75087C4.79137 8.9675 4.55575 9.11266 4.328 9.29487C4.10025 9.47709 3.73975 9.65737 3.512 9.70287C3.28533 9.74814 3.24161 9.83561 3.10594 10.107L3.104 10.1109C2.9668 10.3853 2.87733 10.6549 2.696 10.9269C2.51466 11.1989 2.33421 11.5151 2.152 11.7429C1.96978 11.9706 1.88019 11.8783 1.608 12.6949C1.33581 13.5114 1.24458 15.1862 1.472 15.8229C1.69942 16.4595 1.744 16.6389 1.744 17.0469V18.2709V25.0709C1.744 26.6253 1.74354 25.6136 1.88 26.0229C2.01646 26.4321 2.152 27.3375 2.152 27.9269V29.6949V30.5109C2.152 30.7829 2.15197 30.8734 2.288 31.3269C2.42403 31.7803 2.56 32.7322 2.56 33.5029V35.6789V38.1269C2.56 38.8975 2.70101 39.8494 2.832 40.4389C2.96299 41.0283 2.74158 41.0292 2.832 41.3909C2.92242 41.7525 2.9223 42.2038 2.968 42.6149C3.01369 43.0259 3.05799 43.4717 3.104 43.8389C3.15 44.206 3.24 44.4735 3.24 44.7909V45.6069V47.9189C3.24 48.6895 3.17915 48.5201 3.376 50.0949C3.57285 51.6697 3.376 54.8573 3.376 56.3509V57.9829C3.376 58.5269 3.42132 59.1162 3.512 59.6149C3.55321 59.8416 3.58506 60.0682 3.60754 60.2949C4.69488 61.4176 7.38261 63.5303 9.43478 62.999C11.487 62.4677 13.3178 60.9749 13.9768 60.2949C13.7975 58.8019 13.7535 57.0011 13.984 56.0789C14.3467 54.6282 14.3016 54.7664 14.256 54.3109C14.2104 53.8553 14.0745 53.4512 14.12 52.9509C14.1655 52.4505 14.2561 51.9993 14.12 51.4549C13.9839 50.9104 13.9454 50.2108 14.12 49.6869C14.2902 49.1763 14.2212 48.8318 14.1274 48.3638L14.12 48.3269C14.0226 47.8398 13.8936 47.468 13.848 46.9669C13.8027 46.4682 13.8924 45.9745 13.9827 45.4782L13.984 45.4709C14.0747 44.9721 14.0295 44.3847 13.984 43.8389C13.9385 43.293 13.984 42.7055 13.984 42.2069C13.984 41.7082 13.9392 41.5284 13.848 41.2549C13.7568 40.9814 13.621 40.6684 13.712 39.8949C13.8029 39.1214 13.984 37.9002 13.984 36.9029C13.984 35.9055 13.8483 34.5466 13.712 33.9109C13.5757 33.2751 13.576 33.3669 13.576 33.0949V32.2789C13.576 32.1053 13.6401 32.071 13.712 32.1429C13.7839 32.2148 13.6966 32.2789 14.12 32.2789C14.5434 32.2789 14.5468 33.2884 14.936 33.7749C15.3252 34.2614 15.616 34.7269 15.888 35.2709C16.16 35.8149 16.4574 36.5796 16.704 36.7669C16.9506 36.9542 16.976 37.1749 17.52 38.2629L18.608 40.4389C18.7893 40.8015 18.88 41.1189 18.88 41.2549C18.88 41.3909 18.9251 41.5717 19.016 41.7989C19.1069 42.0261 19.2415 42.1566 19.288 42.3429C19.3345 42.5292 19.288 42.7509 19.288 43.0229C19.288 43.2949 19.3771 43.2868 19.424 43.7029C19.4709 44.1189 19.4689 44.9709 19.696 45.6069C19.9231 46.2428 20.24 46.7402 20.648 47.2389C21.056 47.7376 21.4634 48.2809 21.872 48.7349C22.2806 49.1889 22.8952 49.3126 23.504 49.6869C24.1128 50.0612 24.9805 50.3561 25.544 50.2309C26.1075 50.1056 25.8849 50.163 26.36 50.2309C26.8351 50.2987 27.5826 50.3221 28.128 50.0949C28.6734 49.8676 29.2974 49.4179 29.624 49.2789C29.9506 49.1398 29.5787 49.5962 30.168 49.0069C30.7573 48.4175 32.0263 46.8318 32.48 45.7429C32.9337 44.6539 33.1599 43.8844 33.568 43.0229C33.9761 42.1613 34.5652 40.8471 34.792 40.3029C35.0188 39.7586 34.9731 39.9861 35.064 39.7589C35.1549 39.5317 35.1088 39.8056 35.336 39.0789C35.5632 38.3521 36.2425 36.6764 36.968 35.5429C37.6935 34.4094 38.4634 33.0051 39.008 32.1429C39.5526 31.2807 39.8239 30.9643 40.232 30.3749C40.6401 29.7855 41.184 29.0149 41.456 28.6069C41.728 28.1989 41.864 28.0629 42.136 27.7909C42.408 27.5189 42.6628 27.2046 42.816 26.9749C42.9692 26.7451 43.0207 26.5669 43.224 26.5669C43.3646 26.5669 43.4398 26.5001 43.5186 26.5502C43.4903 26.4276 43.4587 26.3051 43.4237 26.1826Z" fill="#1A1A1A"/>
<path d="M84.4957 49.3026V60.4546C85.6638 61.6333 88.7 63.7186 91.5 62.6306C92.3531 62.7238 94.7034 62.4191 97.2797 60.4546C97.2797 59.8199 97.2343 59.1853 97.1437 58.5506V57.1906C97.1437 56.6466 97.0984 56.1479 97.0077 55.6946L96.7357 53.7906V51.8866V43.5906V42.6386C96.7357 42.2759 96.781 41.9133 96.8717 41.5506C96.9623 40.9159 97.0077 40.3266 97.0077 39.7826C97.0984 39.2386 97.1437 38.6493 97.1437 38.0146V34.2066V33.1186C97.1437 32.7559 97.189 32.3933 97.2797 32.0306C97.3703 31.6679 97.4157 31.3053 97.4157 30.9426C97.4157 30.5799 97.461 30.2173 97.5517 29.8546V28.0866C97.5517 27.4519 97.597 26.8173 97.6877 26.1826C97.7784 25.7293 97.8237 25.2759 97.8237 24.8226V23.4626V20.3346C97.9144 19.4279 97.869 18.5666 97.6877 17.7506L97.4157 15.0306V14.7586C97.2344 13.9426 97.0077 13.1266 96.7357 12.3106L96.1917 9.86259L96.0557 8.50259C95.965 7.86793 95.829 7.32393 95.6477 6.8706C95.4663 6.32659 95.3304 5.73726 95.2397 5.10259C95.2397 4.83059 95.1944 4.55859 95.1037 4.28659C95.013 4.01459 94.877 3.74259 94.6957 3.47059C94.5143 2.83593 94.1517 2.42793 93.6077 2.24659L91.9757 1.70259C91.4317 1.43059 90.8423 1.24926 90.2077 1.15859C88.5757 0.886592 87.0797 1.29459 85.7197 2.38259C84.7223 3.10792 83.9517 4.01459 83.4077 5.10259L81.7757 8.7746C81.413 9.77193 80.9597 10.7693 80.4157 11.7666C79.9623 12.7639 79.4183 13.7613 78.7837 14.7586C78.2397 15.6653 77.6503 16.5719 77.0157 17.4786C76.4717 18.2946 75.8823 19.1559 75.2477 20.0626L74.4317 21.2866C73.525 22.2839 72.6637 23.3266 71.8477 24.4146C71.0317 25.5026 70.2157 26.5453 69.3997 27.5426C69.037 27.9959 68.629 28.4946 68.1757 29.0386L67.0877 30.3986C66.725 30.7613 66.453 30.7159 66.2717 30.2626L65.7277 29.4466L65.1837 28.3586L63.1437 25.0946C62.6903 24.4599 62.237 23.8706 61.7837 23.3266C61.421 22.6919 61.013 22.0573 60.5597 21.4226C60.3783 21.0599 60.1517 20.6973 59.8797 20.3346C59.6984 19.9719 59.4717 19.6546 59.1997 19.3826C58.565 18.6573 57.9757 17.9319 57.4317 17.2066L55.8981 15.1618C55.9502 15.7837 56.0288 16.8616 56.144 17.5909L56.1464 17.6063C56.2815 18.4616 56.3855 19.1201 56.28 20.1749C56.1739 21.236 56.28 22.4654 56.28 23.3029V24.6629C56.28 25.1162 56.2347 25.4787 56.144 26.0229C56.0533 26.5671 56.008 27.3375 56.008 27.9269C56.008 28.5162 56.0537 29.1927 56.008 29.6949C55.9623 30.197 55.872 30.4202 55.872 30.7829C55.872 31.1455 55.8267 31.5082 55.736 31.8709C55.6902 32.0542 55.6559 32.2492 55.6332 32.4382C55.6432 32.4385 55.6534 32.4386 55.6637 32.4386L56.4797 33.9346C56.8423 34.3879 57.1597 34.8866 57.4317 35.4306C57.7037 35.9746 57.9757 36.4733 58.2477 36.9266C58.2477 36.8359 58.5197 37.3346 59.0637 38.4226L60.1517 40.5986C60.333 40.9613 60.4237 41.2333 60.4237 41.4146C60.4237 41.5053 60.469 41.6866 60.5597 41.9586L60.8317 42.5026V43.1826C60.8317 43.4546 60.877 43.6813 60.9677 43.8626C60.9677 44.4973 61.0583 45.1319 61.2397 45.7666C61.5117 46.4013 61.829 46.9453 62.1917 47.3986C62.645 47.9426 63.053 48.4413 63.4157 48.8946C63.869 49.3479 64.413 49.6653 65.0477 49.8466C65.5917 50.3906 66.2717 50.5719 67.0877 50.3906H67.9037C68.5383 50.4813 69.1277 50.4359 69.6717 50.2546C70.2157 49.9826 70.7143 49.7106 71.1677 49.4386C71.349 49.4386 71.5303 49.3479 71.7117 49.1666C72.709 48.1693 73.4797 47.0813 74.0237 45.9026C74.3863 44.9053 74.749 43.9986 75.1117 43.1826C75.565 42.2759 75.973 41.3693 76.3357 40.4626L76.6077 39.9186C76.6983 39.6466 76.789 39.4199 76.8797 39.2386C77.2423 37.9693 77.7863 36.7906 78.5117 35.7026C79.237 34.5239 79.917 33.3906 80.5517 32.3026C81.005 31.6679 81.413 31.0786 81.7757 30.5346C82.229 29.8999 82.637 29.3106 82.9997 28.7666C83.181 28.4946 83.4077 28.2226 83.6797 27.9506C83.9517 27.6786 84.1783 27.4066 84.3597 27.1346L84.7677 26.7266C84.949 26.7266 85.085 26.7719 85.1757 26.8626C85.357 27.3159 85.357 27.6786 85.1757 27.9506C85.085 28.9479 84.9943 29.9906 84.9037 31.0786V34.0706C84.9037 34.2519 84.8583 34.4786 84.7677 34.7506V35.5666C84.7677 36.0199 84.7223 36.4733 84.6317 36.9266V38.2866C84.541 41.9133 84.4957 45.5853 84.4957 49.3026Z" fill="#1A1A1A"/>
</svg>
